<?xml version="1.0" encoding="utf-8"?>
<!-- Generator: Adobe Illustrator 16.0.0, SVG Export Plug-In . SVG Version: 6.00 Build 0)  -->
<!DOCTYPE svg PUBLIC "-//W3C//DTD SVG 1.1//EN" "http://www.w3.org/Graphics/SVG/1.1/DTD/svg11.dtd">
<svg version="1.1" id="Layer_1" xmlns="http://www.w3.org/2000/svg" xmlns:xlink="http://www.w3.org/1999/xlink" x="0px" y="0px"
	 width="600px" height="600px" viewBox="0 0 600 600" enable-background="new 0 0 600 600" xml:space="preserve">
<g>
	<g>
		<path fill="#333333" d="M544.015,363.224c0.179,0.014,0.273,0.02,0.273,0.02s-2.779-35.775-7.229-76.166
			c-3.369-30.594-5.042-32.41-6.178-59.395c-2.688,15.539,1.336,45.299,1.336,45.299s-4.487-18.489-3.74-33.903
			c0.601-12.34,1.563-18.643,1.923-20.665c-0.684,0.003-3.849,0.03-9.094,0.256c-0.014,0-0.031,0-0.046,0
			c-8.218,0.252-12.982,6.399-20.778,4.995c-6.854-1.233-18.898-1.325-33.13-0.427c-1.921,0.146-3.882,0.284-5.878,0.419
			c-0.034,0.003-0.068,0.006-0.104,0.008c-16.805,1.331-25.157,6.39-52.589,5.891c-27.431-0.499-65.566,2.022-65.566,2.022l0,0
			c-2.957,0.201-4.781,0.321-4.781,0.321s0.213,7.193-1.916,25.331c-0.266,2.251-0.492,4.369-0.687,6.355
			c0.925-2.999,1.88-6.124,2.629-8.646c1.672-5.629,1.495-13.888,1.336-17.272c-0.052-0.96-0.089-1.531-0.089-1.531
			s0.043,0.568,0.089,1.531c0.251,4.635,0.846,18.517-0.766,22.923c-2.25,6.145-4.408,21.685-4.408,21.685
			s-6.011,5.585-16.655,12.81c-2.963,2.012-5.926,4.197-8.58,6.23c5.15-3.236,16.167-7.609,16.167-7.609s-7.854,6.173-12.717,7.609
			c-4.052,1.2-6.792,4.378-8.843,5.905c-1.186,5.396-3.688,8.918-3.688,8.918s0.625-3.167,1.372-6.849
			c0.581-2.862,0.711-9.743,0.74-12.333c-1,0.781-9.367,7.28-15.921,13.608c-13.123,12.666-21.25,18.648-21.25,18.648l23.827-9.091
			c2.005-3.282,2.815-7.208,2.815-7.208s0.188,4.169-0.748,7.076c-0.935,2.908-3.904,12.889-3.904,12.889s10.588-5.014,24.4-7.19
			c15.6-2.458,20.954-6.175,20.954-6.175c-0.686,8.784-1.127,9.855-1.428,16.424c2.935-8.062,3.555-14.415,3.555-14.415
			s0.748,8.527-1.745,15.456c-2.416,6.711-2.991,24.954-2.993,24.965c37.035-4.146,91.519,0.402,70.197-0.717
			c-21.32-1.119-71.021,3.792-71.021,3.792s62.605-2.581,73.173-1.646c7.192,0.636,56.538,0.279,71.537-0.787
			c25.927-1.842,55.518-0.309,66.253,0.374c0.439-4.068,0.787-12.853-1.493-27.421c-3.316-21.194-5.66-52.584-5.66-52.584
			s1.248,13.93,3.99,27.396C539.299,321.852,542.987,354.065,544.015,363.224z M534.088,357.107c0,0,1.311-1.87,2.059-8.042
			c0.749-6.173-1.685-20.387-1.685-20.387s0.937,2.431,2.619,10.475c1.684,8.04,0,20.945,0,20.945s-4.302,0-15.82-1.496
			c-11.518-1.495-15.414-0.747-15.414-0.747C514.077,354.863,534.088,357.107,534.088,357.107z"/>
		<path fill="#333333" d="M373.999,228.433c0,0,21.532-1.869,36.698-0.622c15.166,1.245,31.001-2.742,31.999-3.119
			C443.693,224.317,403.68,224.194,373.999,228.433z"/>
		<path fill="#333333" d="M474.615,220.204c0,0,15.708-0.631,23.315,0.625c7.608,1.253,12.801-1.747,14.692-2.494
			c1.891-0.748,1.891-0.748,1.891-0.748h-12.719c0,0,1.647,0.645,2.713,0.683c3.241,0.127,4.583,0.688,4.583,0.688
			S484.695,218.463,474.615,220.204z"/>
	</g>
	<path fill="#999999" d="M155.352,300.008c0,0-12.646,7.489-28.73,14.421c-16.084,6.931-38.278,16.532-38.278,16.532
		s24.658,11.993,39.275,17.541c14.618,5.547,30.169,13.639,30.169,13.639l-1.117,26.174l-96.132-41.967l2.245-26.483l62.591-34.04
		l-17.323-6.606l-46.016-18.83l0.25-25.309l1.994-0.189c0,0,42.952,15.166,55.64,22.016c12.688,6.851,25.405,12.683,30.393,14.44
		c4.988,1.761,6.608,2.634,6.608,2.634L155.352,300.008z"/>
	<g>
		<path fill="#999999" d="M237.111,373.104c-4.571,1.681-7.895,3.048-9.697,3.815c-0.975,0.426-1.545,0.675-1.545,0.675
			s0.537-0.246,1.545-0.675c4.545-1.993,17.982-7.964,24.673-11.854c-3.853-1.836-12.351-5.879-22.304-10.551l-73.113,33.8
			l-65.333-29.718l-24.219,11.271c0,0,1.497,0.639,4.079,1.758c4.079,1.756,18.895,5.595,29.925,9.208
			c11.035,3.616,16.271,7.794,29.55,16.771c9.767,6.602,15.038,9.777,17.145,10.997c11.344,6.395,11.346,6.397,11.346,6.397
			s13.239-12.718,24.931-20.199c9.232-5.904,20.551-10.91,28.732-13.966c8.18-3.056,8.18-3.056,8.18-3.056
			s-12.746,6.145-20.76,11.41c-6.646,4.367-10.204,7.199-10.204,7.199s25.877-11.354,36.413-16.215
			c0.004-0.003,0.008-0.003,0.012-0.006c3.475-1.686,6.464-3.086,8.729-4.07c17.229-7.481,19.1-9.974,19.1-9.974
			S244.239,370.483,237.111,373.104z"/>
		<path fill="#999999" d="M198.534,388.813c0,0-8.573,4.582-12.408,9.446c-3.833,4.859-20.759,14.118-20.759,14.118
			S189.058,391.431,198.534,388.813z"/>
		<path fill="#999999" d="M148.066,412.378c0,0-16.645-9.537-27.679-17.767c-11.035-8.228-15.337-11.657-24.501-13.03
			c-9.164-1.37-22.442-6.047-22.442-6.047s19.263,6.546,29.736,11.784C113.654,392.553,139.362,409.939,148.066,412.378z"/>
	</g>
	<path fill="#824A3A" d="M223.86,258.23c0.233-0.176,0.376-0.281,0.376-0.281S224.145,257.975,223.86,258.23z"/>
	<path fill="#333333" d="M100.129,268.398c0.322,0.308,0.617,0.651,0.969,0.938c0.347,0.291,0.698,0.587,1.052,0.885
		c0.354,0.296,0.712,0.598,1.071,0.898c0.386,0.269,0.774,0.539,1.165,0.81c0.782,0.544,1.557,1.119,2.421,1.565
		c0.423,0.24,0.847,0.48,1.273,0.72c0.427,0.237,0.843,0.5,1.3,0.684c0.896,0.402,1.795,0.807,2.695,1.212
		c0.913,0.37,1.862,0.649,2.788,0.977l1.394,0.469c0.47,0.131,0.937,0.259,1.404,0.388c1.872,0.499,3.734,0.938,5.56,1.225
		c1.825,0.287,3.614,0.449,5.314,0.385c1.687-0.087,3.325-0.371,4.627-1.133c0.647-0.371,1.203-0.854,1.605-1.411
		c0.402-0.559,0.642-1.178,0.771-1.772c0.257-1.194,0.112-2.271-0.081-3.111c-0.199-0.845-0.461-1.479-0.657-1.897
		c-0.194-0.425-0.322-0.636-0.322-0.636l-0.13,0.072c0,0,0.105,0.224,0.253,0.656c0.154,0.43,0.329,1.076,0.464,1.895
		c0.125,0.817,0.172,1.847-0.146,2.885c-0.3,1.044-1.053,1.984-2.206,2.542c-0.57,0.288-1.231,0.485-1.95,0.594
		c-0.71,0.132-1.481,0.177-2.273,0.188c-1.595-0.006-3.3-0.24-5.059-0.552c-1.77-0.315-3.549-0.815-5.385-1.312
		c-0.465-0.135-0.931-0.269-1.399-0.402l-1.327-0.463c-0.892-0.33-1.809-0.606-2.687-0.972c-0.87-0.382-1.741-0.762-2.609-1.144
		c-0.444-0.171-0.844-0.419-1.258-0.646c-0.411-0.226-0.821-0.452-1.229-0.678c-0.837-0.424-1.587-0.965-2.354-1.462
		c-0.382-0.251-0.764-0.499-1.142-0.748c-0.352-0.282-0.702-0.561-1.05-0.837c-0.347-0.279-0.692-0.552-1.035-0.826
		c-0.345-0.268-0.637-0.588-0.96-0.87c-0.624-0.583-1.27-1.13-1.798-1.756c-1.124-1.188-2.101-2.399-2.944-3.562
		c-0.829-1.175-1.536-2.297-2.119-3.32c-0.575-1.033-1.015-1.965-1.35-2.748c-0.321-0.79-0.579-1.413-0.726-1.846
		c-0.146-0.433-0.213-0.672-0.213-0.672l-0.147,0.025c0,0,0.155,0.984,0.704,2.62c0.548,1.633,1.503,3.926,3.089,6.426
		c0.793,1.244,1.732,2.55,2.851,3.823C98.865,267.172,99.506,267.763,100.129,268.398z"/>
	<path fill="#333333" d="M105.105,259.408c-0.124,0.731-0.101,1.507,0.071,2.266c0.169,0.76,0.43,1.521,0.816,2.229
		c0.108,0.185,0.175,0.338,0.32,0.547c0.111,0.162,0.196,0.311,0.329,0.479l0.409,0.509l0.417,0.449
		c0.582,0.569,1.209,1.071,1.855,1.521c0.642,0.455,1.336,0.812,2.023,1.128c0.69,0.309,1.402,0.538,2.152,0.61
		c0.187,0.02,0.386,0.009,0.571,0.012c0.2-0.028,0.4-0.051,0.595-0.117l0.292-0.141l0.071-0.036l0.017-0.011l0.009-0.006l0.047-0.03
		l0.021-0.017l0.084-0.075c0.043-0.033,0.162-0.17,0.225-0.257c0.063-0.095,0.103-0.182,0.146-0.273
		c0.259-0.745,0.065-1.306-0.056-1.774c-0.139-0.469-0.318-0.843-0.467-1.15c-0.308-0.604-0.524-0.923-0.524-0.923
		s0.101,0.374,0.243,1.021c0.069,0.327,0.142,0.724,0.186,1.164c0.038,0.43,0.036,0.968-0.16,1.298
		c-0.135,0.251-0.595,0.343-1.144,0.209c-0.55-0.114-1.146-0.385-1.739-0.694c-1.18-0.64-2.389-1.498-3.39-2.512l-0.369-0.38
		l-0.316-0.37c-0.106-0.127-0.218-0.305-0.326-0.449c-0.075-0.099-0.172-0.288-0.258-0.425c-0.335-0.603-0.628-1.222-0.806-1.851
		c-0.176-0.624-0.272-1.246-0.241-1.816c0.026-0.563,0.192-1.093,0.456-1.42c0.039-0.078,0.153-0.176,0.26-0.262
		c0.051-0.065,0.175-0.115,0.255-0.18c0.188-0.103,0.393-0.169,0.596-0.206c0.409-0.058,0.801-0.033,1.117,0.037
		c0.312,0.069,0.567,0.136,0.735,0.206c0.169,0.061,0.259,0.095,0.259,0.095s-0.077-0.059-0.221-0.168
		c-0.14-0.108-0.362-0.265-0.678-0.415c-0.313-0.147-0.725-0.299-1.245-0.324c-0.26-0.009-0.544,0.022-0.839,0.112
		c-0.146,0.064-0.286,0.095-0.447,0.206c-0.115,0.069-0.231,0.134-0.379,0.276C105.527,257.985,105.224,258.672,105.105,259.408z"/>
	<ellipse fill="#999999" cx="160.844" cy="246.051" rx="8.258" ry="3.998"/>
	<ellipse fill="#999999" cx="213.605" cy="226.768" rx="8.257" ry="3.996"/>
	<path fill="#333333" d="M154.052,305.399c0,0-2.296,1.512-5.869,3.51c-0.892,0.5-1.857,1.047-2.893,1.594
		c-1.033,0.549-2.116,1.144-3.257,1.716c-1.14,0.577-2.303,1.2-3.51,1.783c-1.204,0.586-2.428,1.184-3.65,1.78
		c-1.238,0.571-2.444,1.146-3.662,1.732c-1.204,0.589-2.417,1.11-3.574,1.646c-2.326,1.053-4.517,1.993-6.414,2.764
		c-1.868,0.812-3.444,1.456-4.559,1.892c-1.115,0.433-1.763,0.663-1.763,0.663s0.559-0.395,1.557-1.06
		c1-0.658,2.437-1.599,4.201-2.653c1.77-1.029,3.855-2.188,6.113-3.382c1.133-0.587,2.288-1.228,3.49-1.817
		c1.188-0.6,2.425-1.222,3.65-1.811c1.235-0.574,2.468-1.146,3.683-1.713c1.212-0.572,2.429-1.083,3.594-1.604
		c1.163-0.524,2.307-0.99,3.386-1.445c1.077-0.46,2.107-0.868,3.059-1.244C151.434,306.232,154.052,305.399,154.052,305.399z"/>
	<path fill="#333333" d="M201.134,237.322c0,0-0.849-0.374-2.336-1.032c-1.485-0.661-3.584-1.638-6.095-2.826
		c-1.255-0.595-2.614-1.239-4.037-1.948c-1.425-0.702-2.946-1.414-4.491-2.198c-3.098-1.554-6.402-3.209-9.706-4.866
		c-1.643-0.846-3.273-1.719-4.906-2.514c-1.633-0.799-3.21-1.645-4.753-2.429c-0.768-0.401-1.53-0.781-2.264-1.18
		c-0.743-0.371-1.473-0.736-2.181-1.091c-1.422-0.697-2.757-1.387-3.988-2.025c-0.616-0.318-1.206-0.623-1.767-0.915
		c-0.571-0.266-1.112-0.523-1.619-0.763c-1.017-0.482-1.903-0.906-2.633-1.256c-1.459-0.712-2.291-1.142-2.291-1.142
		s0.891,0.249,2.447,0.724c0.776,0.246,1.72,0.541,2.802,0.882c0.54,0.175,1.115,0.362,1.721,0.561
		c0.59,0.231,1.211,0.477,1.859,0.731c1.296,0.51,2.699,1.068,4.172,1.686c0.738,0.303,1.496,0.616,2.271,0.939
		c0.767,0.336,1.537,0.706,2.328,1.066c1.575,0.736,3.218,1.468,4.859,2.268c1.654,0.779,3.3,1.628,4.958,2.456
		c1.645,0.854,3.29,1.708,4.909,2.551c1.618,0.843,3.173,1.741,4.698,2.572c3.042,1.677,5.842,3.318,8.219,4.761
		c2.389,1.423,4.336,2.687,5.7,3.568c0.685,0.436,1.207,0.807,1.57,1.046C200.942,237.191,201.134,237.322,201.134,237.322z"/>
	<g>
		<g>
			<path fill="#FFFFFF" d="M357.906,254.246c-1.116,0-1.35-0.323-1.35-2.416c0-2.046,0.28-2.279,1.35-2.279h18.463
				c0.326,0.466,0.744,1.952,0.744,2.929c0,2.886-0.977,4.233-13.72,23.858c10.185,0,11.766,0.092,13.533-0.327
				c0.094,0.515,0.326,1.675,0.326,2.838c0,1.442-0.838,2.186-2.837,2.186h-17.301c-0.465-0.651-0.837-1.813-0.837-3.022
				c0-2.279,0.744-3.535,13.905-23.811L357.906,254.246z"/>
		</g>
		<g>
			<path fill="#FFFFFF" d="M372.948,295.909c10.315,0,16.436,3.627,16.436,12.45c0,5.765-4.198,9.535-7.755,10.389
				c3.629,0.642,9.106,3.842,9.106,11.669c0,11.242-8.183,14.301-16.862,14.301c-5.977,0-12.309-0.712-13.661-1.065
				c0,0,0.285-13.235,0.285-25.188c0-5.763-0.215-17.005-0.142-21.773C363.344,296.267,368.679,295.909,372.948,295.909z
				 M384.119,330.417c0-7.4-5.479-8.893-11.384-8.893c-2.42,0-5.765,0.14-5.765,0.14c0,15.869-0.213,17.361-0.213,17.361
				c1.78,0.215,4.057,0.285,6.403,0.285C378.354,339.311,384.119,337.96,384.119,330.417z M373.232,316.828
				c6.617,0,9.677-2.704,9.677-7.757c0-5.905-4.34-7.755-10.814-7.755c-1.566,0-3.7,0.069-4.98,0.215c0,0,0,1.136-0.214,15.154
				C367.114,316.686,370.528,316.828,373.232,316.828z"/>
		</g>
		<g>
			<g>
				<path fill="#FFFFFF" d="M405.935,312.609l-9.351-2.42l0.127-0.636l9.35,2.419L405.935,312.609z M406.76,324.184l-6.932,0.446
					v-0.637l6.932-0.446V324.184z M413.248,333.023l-7.377,6.107l-0.383-0.511l7.378-6.104L413.248,333.023z M410.322,301.986
					l-3.625-4.453l0.51-0.38l3.561,4.515L410.322,301.986z M423.105,341.548l-3.879,4.958l-0.508-0.379l3.879-4.961L423.105,341.548
					z M422.026,297.661l-2.608-7.378l0.635-0.254l2.608,7.379L422.026,297.661z M435.699,299.76v-6.295h0.636v6.295H435.699z
					 M448.865,341.166l3.88,4.961l-0.508,0.379l-3.882-4.958L448.865,341.166z M448.802,297.408l2.606-7.379l0.638,0.254
					l-2.608,7.378L448.802,297.408z M458.596,332.516l7.377,6.104l-0.38,0.511l-7.377-6.107L458.596,332.516z M460.695,301.668
					l3.562-4.515l0.511,0.38l-3.626,4.453L460.695,301.668z M464.702,323.547l6.933,0.446v0.637l-6.933-0.446V323.547z
					 M465.401,311.973l9.35-2.419l0.127,0.636l-9.349,2.42L465.401,311.973z"/>
			</g>
		</g>
		<g>
			<g>
				<path fill="#FFFFFF" d="M492.215,248.364l-3.363,8.929l4.844-0.898l-7.94,18.662l-0.538-0.045c0,0,2.961-12.515,3.005-12.515
					l-4.889,0.807l4.755-14.939H492.215z"/>
			</g>
		</g>
		<g>
			<g>
				<path fill="#FFFFFF" d="M507.006,245.6c0,0,2.481,5.05,2.481,7.296c0,1.264-0.968,2.439-2.547,2.453
					c-1.997,0.014-2.923-1.226-2.923-2.453c0-2.377,2.884-7.311,2.884-7.311L507.006,245.6z"/>
			</g>
		</g>
		<g>
			<path fill="#FFFFFF" d="M510.595,296.904c0.618-0.923,1.622-1.207,3.396-0.638c1.854,0.568,2.241,1.065,1.159,2.631
				l-14.209,20.991c12.046,19.99,13.05,21.271,14.904,23.121c-1.312,1.284-2.702,1.78-3.707,1.78c-0.849,0-2.008-0.142-2.701-1.351
				l-11.43-19.851l-12.589,20.348c-0.54,0.854-1.543,1.139-3.319,0.569c-1.854-0.569-2.163-1.066-1.158-2.631l14.132-22.2
				c-12.589-19.282-13.361-20.208-15.213-22.128c1.312-1.211,2.702-1.708,3.707-1.708c0.848,0,1.93,0.143,2.7,1.351l11.74,18.928
				L510.595,296.904z"/>
		</g>
		<g>
			<path fill="#FFFFFF" d="M433.972,337.616c-10.478,0-17.336-5.246-17.336-13.962c0-14.318,8.894-21.62,21.707-21.62
				c10.479,0,17.26,5.315,17.26,14.035C455.603,330.387,446.785,337.616,433.972,337.616z M438.041,311.248
				c-3.994,0-7.764,5.388-7.764,12.476c0,3.188,1.659,4.748,3.995,4.748c3.995,0,7.688-5.388,7.688-12.476
				C441.961,312.807,440.302,311.248,438.041,311.248z"/>
		</g>
		<g>
			<path fill="#FFFFFF" d="M393.362,272.428c-4.789,0-8.371-2.837-8.371-8.558c0-8.974,4.651-14.414,11.395-14.414
				c4.79,0,8.37,2.837,8.37,8.602C404.756,266.987,400.06,272.428,393.362,272.428z M396.199,252.62
				c-4.139,0-7.115,4.787-7.115,11.25c0,3.771,2,5.396,4.464,5.396c4.14,0,7.115-4.791,7.115-11.253
				C400.663,254.198,398.617,252.62,396.199,252.62z"/>
		</g>
		<g>
			<path fill="#FFFFFF" d="M426.314,259.869c0-2.606-0.791-3.304-2.045-3.304c-1.209,0-3.163,1.351-3.953,2.327v14.089l-8.65,0.233
				c0.141-6.278,0.141-10.837,0.141-13.859c0-2.093-0.093-4.931-0.093-6.649c0-1.861,1.72-2.65,6.276-2.65
				c1.58,0,2.14,0.789,2.14,1.582c0,0.789,0,1.3-0.187,2.277l0.14,0.139c1.628-1.905,4.141-3.998,7.814-3.998
				c3.161,0,5.532,1.674,6.232,4.604c1.767-2.511,4.277-4.604,7.997-4.604c4.651,0,6.976,2.464,6.976,8.649
				c0,9.487-0.093,11.394,0.232,14.276c-0.696,0.142-3.721,0.233-5.255,0.233c-2.279,0-3.58-1.348-3.58-3.116l0.045-10.186
				c0-2.65-0.789-3.348-2.231-3.348c-1.208,0-2.838,1.351-3.767,2.514v13.902l-8.232,0.233V259.869z"/>
		</g>
		<g>
			<path fill="#FFFFFF" d="M465.536,242.675c6.139,0,10.232,2.138,10.232,8.044c0,3.673-2.652,6.326-5.208,6.837
				c2.556,0.419,6.091,2.464,6.091,7.718c0,7.256-5.208,9.303-10.51,9.303c-3.721,0-7.302-0.466-8.187-0.696
				c0,0,0.187-8.651,0.187-16.463c0-3.768-0.14-11.118-0.092-14.231C460.003,242.906,462.933,242.675,465.536,242.675z
				 M473.536,265.461c0-5.489-4.093-6.558-8.232-6.558c-1.86,0-4.231,0.092-4.231,0.092c0,11.768-0.141,12.791-0.141,12.791
				c1.303,0.14,2.932,0.185,4.652,0.185C469.303,271.971,473.536,270.997,473.536,265.461z M465.676,256.486
				c4.791,0,6.976-1.955,6.976-5.583c0-4.322-3.255-5.625-7.813-5.625c-1.207,0-2.695,0.047-3.627,0.14c0,0,0,0.836-0.139,10.974
				C461.072,256.392,463.676,256.486,465.676,256.486z"/>
		</g>
		<g>
			<path fill="#FFFFFF" d="M513.434,265.848c0,1.086-0.495,1.488-1.644,1.488c-1.921,0-6.323,0-7.937,0
				c-0.123,3.597,1.55,4.651,4.372,4.651c1.922,0,3.658-0.497,4.309-0.714c0.435,1.303,0.372,1.581,0.062,1.922
				c-0.589,0.558-2.294,1.304-5.053,1.304c-4.218,0-7.193-2.202-7.193-7.099c0-5.551,2.945-8.249,7.1-8.249
				C511.17,259.151,513.434,260.979,513.434,265.848z M510.209,265.447c0.125-2.729-1.085-3.876-2.759-3.876
				c-1.983,0-3.41,1.705-3.566,3.938L510.209,265.447z"/>
		</g>
		<g>
			<g>
				<path fill="#FFFFFF" d="M499.02,327.811l-10.94,17.686c-0.259,0.408-0.642,0.854-1.193,1.194c1.4-0.039,2.162-0.765,2.56-1.393
					l10.173-16.446L499.02,327.811z"/>
			</g>
			<g>
				<path fill="#FFFFFF" d="M488.913,296.76l10.206,16.452l0.512-0.784l-9.346-15.068c-0.695-1.088-1.608-1.542-2.373-1.731
					C488.29,295.939,488.627,296.311,488.913,296.76z"/>
			</g>
			<g>
				<path fill="#FFFFFF" d="M519.709,342.99c-1.758-1.758-2.878-3.239-14.366-22.297l13.801-20.387
					c0.528-0.762,1.022-1.669,0.693-2.612c-0.316-0.912-1.234-1.336-2.136-1.632c0.355,0.301,0.665,0.687,0.842,1.191
					c0.439,1.267-0.188,2.42-0.786,3.282l-13.528,19.984c11.184,18.547,12.341,20.079,14.008,21.742l1.342,1.339l-1.357,1.325
					c-0.767,0.748-1.618,1.331-2.49,1.725c1.341-0.153,2.759-0.885,3.97-2.064l0.812-0.793L519.709,342.99z"/>
			</g>
		</g>
		<g>
			<g>
				<g>
					<path fill="#FFFFFF" d="M376.274,283.946l-2.245,2.246h1.28l5.39-5.388c-0.051-0.327-0.102-0.61-0.143-0.826l-0.049-0.265
						l-1.138,1.138C378.951,282.186,377.984,283.369,376.274,283.946z"/>
				</g>
				<g>
					<path fill="#FFFFFF" d="M377.665,286.192c0.279,0,0.532-0.017,0.773-0.041l2.757-2.852c0.001-0.028-0.022-0.859-0.058-1.223
						l-4.021,4.115H377.665z"/>
				</g>
				<g>
					<path fill="#FFFFFF" d="M358.746,286.137l1.816-1.813h-1.028l-1.04,1.041C358.562,285.484,358.746,286.137,358.746,286.137z"/>
				</g>
				<g>
					<polygon fill="#FFFFFF" points="361.282,286.192 363.152,284.323 362.181,284.323 360.311,286.192 					"/>
				</g>
				<g>
					<polygon fill="#FFFFFF" points="364.125,286.192 365.994,284.323 365.022,284.323 363.152,286.192 					"/>
				</g>
				<g>
					<polygon fill="#FFFFFF" points="366.966,286.192 368.837,284.323 367.864,284.323 365.994,286.192 					"/>
				</g>
				<g>
					<polygon fill="#FFFFFF" points="369.81,286.192 371.68,284.323 370.708,284.323 368.837,286.192 					"/>
				</g>
				<g>
					<polygon fill="#FFFFFF" points="372.365,286.192 374.235,284.323 373.264,284.323 371.394,286.192 					"/>
				</g>
			</g>
			<g>
				<g>
					<path fill="#FFFFFF" d="M368.285,273.647l0.867,0.003l6.86-6.864c0.831-1.312,1.517-2.417,2.082-3.359l-9.046,9.043
						C368.8,272.857,368.547,273.243,368.285,273.647z"/>
				</g>
				<g>
					<path fill="#FFFFFF" d="M371.483,268.539l8.482-8.482c0.485-0.931,0.301-0.712,0.485-1.326l-7.138,7.138
						C372.621,266.951,372.339,267.216,371.483,268.539z"/>
				</g>
				<g>
					<path fill="#FFFFFF" d="M371.491,273.647l0.312-0.312c0.858-1.328,1.522-2.159,2.226-3.254l-3.074,3.569
						C371.427,273.65,371.106,273.647,371.491,273.647z"/>
				</g>
				<g>
					<path fill="#FFFFFF" d="M375.159,262.536l5.561-5.561c0.026-0.293,0.017-0.143,0.017-0.457c0-0.124-0.007-0.258-0.018-0.394
						l-3.604,3.604C376.583,260.647,375.952,261.267,375.159,262.536z"/>
				</g>
				<g>
					<path fill="#FFFFFF" d="M379.489,252.027c0,0.436-0.011,0.838-0.048,1.231l0.6-0.6c-0.082-0.18-0.165-0.341-0.252-0.464
						l-0.232-0.332l-0.071,0.072C379.485,251.967,379.489,252,379.489,252.027z"/>
				</g>
				<g>
					<path fill="#FFFFFF" d="M378.652,256.805l1.869-1.958c-0.069-0.347-0.088-0.347-0.189-0.673l-1.132,1.133
						C379.033,255.912,379.059,255.971,378.652,256.805z"/>
				</g>
			</g>
			<g>
				<g>
					<path fill="#FFFFFF" d="M363.344,259.397l1.312-1.312c0.124-0.189,0.246-0.38,0.373-0.574l-1.082,0.002l-1.889,1.89
						L363.344,259.397z"/>
				</g>
				<g>
					<path fill="#FFFFFF" d="M358.475,258.607l1.082-1.079l-1.284,0.003l-0.188,0.188
						C358.163,258.047,358.284,258.354,358.475,258.607z"/>
				</g>
				<g>
					<path fill="#FFFFFF" d="M360.559,259.381l1.863-1.861l-1.285,0.006l-1.58,1.578
						C359.819,259.25,360.153,259.345,360.559,259.381z"/>
				</g>
			</g>
		</g>
		<g>
			<circle fill="#FFFFFF" cx="491.258" cy="242.772" r="2.743"/>
		</g>
	</g>
	<path fill="#333333" d="M257.563,234.968l-0.031-1.694l-0.007-0.002c0.005-0.146,0.007-0.223,0.007-0.223l-15.628-6.664
		c-7.111-3.208-16.159-7.392-25.33-11.881l0.598-2.327l0.338-1.314l-0.092-0.084l0.053-0.179l-0.973-0.876l-0.671-0.603l0.319-0.577
		c0.978,0.239,1.927,0.364,2.806,0.364c2.321,0,4.144-0.862,5.132-2.424c0.565-0.894,0.808-1.917,0.734-3.017
		c-0.033-1.159-0.412-2.402-1.159-3.678c-1.131-1.935-3.024-3.801-5.328-5.257c-2.612-1.652-5.498-2.6-7.918-2.6
		c-2.324,0-4.149,0.863-5.14,2.43c-0.511,0.806-0.748,1.718-0.74,2.684c-0.052,1.523,0.54,3.206,1.737,4.878l-0.255,0.616
		l-3.043,5.138c-21.474-10.791-43.82-20.847-44.06-20.952l-1.054-0.475l-1.061,0.46c-0.731,0.318-73.357,31.874-96.888,45.003
		l-0.843,0.469l-0.336,0.906c-0.322,0.868-1.847,6.939-0.16,41.168c1.719,34.889,0.017,70.974,0,71.333l-0.084,1.75l1.586,0.745
		c0.289,0.137,28.979,13.594,49.99,22.247c20.845,8.58,46.322,21.718,46.578,21.849l1.283,0.664l1.245-0.73
		c0.292-0.174,29.416-17.245,54.401-27.776c25.317-10.673,42.557-21.014,42.728-21.116l1.257-0.76l0.01-1.467
		C257.568,340.214,258.057,262.363,257.563,234.968z M211.762,201.422l0.082-0.137l-1.134-1.23c-1.249-1.351-1.63-2.399-1.68-2.935
		c0.007-0.059,0.021-0.104,0.039-0.131c0.083-0.132,0.521-0.341,1.346-0.341c1.57,0,3.634,0.711,5.52,1.905
		c1.684,1.062,3.089,2.425,3.854,3.73c0.371,0.634,0.511,1.116,0.542,1.427c-0.008,0.066-0.02,0.119-0.038,0.147
		c-0.082,0.128-0.517,0.335-1.338,0.335c-0.89,0-1.955-0.229-3.076-0.662l-1.828-0.708l-0.946,1.716l-2.149,3.9L210.093,210
		l0.083,0.075l-0.083,0.15l1.326,1.191l1.021,0.918l-1.543,6.011l-0.948-4.516l-0.141-0.672l-0.491-0.477l-2.597-2.521l4.273-7.213
		l0.852-1.437L211.762,201.422z M96.734,270.156c-0.417-0.328-0.963-0.68-1.487-1.204c-0.54-0.509-1.161-1.066-1.813-1.697
		c-0.613-0.673-1.277-1.401-1.98-2.171c-0.649-0.812-1.333-1.672-2.041-2.559c-0.651-0.935-1.349-1.878-2.011-2.868
		c-0.631-1.014-1.323-2.01-1.922-3.062c-0.61-1.047-1.235-2.084-1.788-3.142c-0.282-0.525-0.563-1.047-0.84-1.561
		c-0.262-0.521-0.521-1.037-0.777-1.542c-1.023-2.029-1.891-3.963-2.619-5.623c-0.379-0.885-0.71-1.686-0.997-2.394
		c3.479,1.336,7.316,2.81,11.357,4.363c3.876,1.499,7.939,3.072,12.044,4.683c-0.461,0.226-0.922,0.544-1.31,0.993
		c-0.525,0.589-0.878,1.381-1.032,2.218c-0.164,0.843-0.141,1.722-0.038,2.609c0.238,1.786,0.8,3.574,1.658,5.41
		c0.109,0.216,0.219,0.436,0.33,0.653c0.127,0.226,0.273,0.449,0.412,0.675c0.275,0.461,0.598,0.877,0.927,1.287
		c0.65,0.831,1.407,1.596,2.204,2.324c1.618,1.443,3.459,2.687,5.4,3.814c1.954,1.096,4.007,2.126,6.192,2.849
		c1.084,0.388,2.21,0.664,3.349,0.893c1.148,0.177,2.316,0.274,3.503,0.188c1.172-0.098,2.423-0.385,3.457-1.236
		c0.493-0.438,0.937-0.99,1.139-1.627l0.157-0.475c0.038-0.155,0.043-0.314,0.064-0.474l0.048-0.478
		c0.008-0.155-0.018-0.307-0.025-0.457c-0.019-0.622-0.18-1.176-0.326-1.733c-0.206-0.519-0.382-1.055-0.635-1.528
		c-0.123-0.24-0.246-0.478-0.368-0.712c-0.066-0.126-0.112-0.221-0.195-0.366l-0.196-0.32c-0.266-0.424-0.528-0.84-0.787-1.253
		c-0.503-0.823-1.105-1.618-1.639-2.381c-0.589-0.728-1.125-1.45-1.715-2.089c-0.294-0.335-0.592-0.648-0.892-0.948
		c0.524,0.211,1.059,0.43,1.576,0.638c0.295,0.12,0.585,0.238,0.879,0.354c4.045,2.001,7.874,3.894,11.453,5.583
		c2.246,1.062,4.381,2.032,6.372,2.908c0.047,0.137,0.102,0.302,0.169,0.519c0.178,0.578,0.417,1.415,0.622,2.437
		c0.202,1.019,0.391,2.225,0.416,3.52c0.033,1.291-0.092,2.681-0.54,3.97c-0.232,0.637-0.517,1.264-0.923,1.798
		c-0.179,0.284-0.423,0.513-0.638,0.761c-0.244,0.218-0.481,0.446-0.745,0.631c-0.525,0.371-1.081,0.672-1.646,0.874
		c-0.556,0.228-1.117,0.345-1.632,0.46c-0.523,0.075-1.002,0.167-1.436,0.173c-0.43,0.027-0.808,0.059-1.118,0.039
		c-0.624-0.012-0.979-0.017-0.979-0.017s0.355,0.03,0.976,0.08c0.312,0.039,0.69,0.034,1.126,0.037
		c0.438,0.019,0.927-0.039,1.466-0.081c0.532-0.081,1.116-0.164,1.71-0.363c0.601-0.17,1.208-0.452,1.797-0.812
		c0.296-0.179,0.568-0.404,0.849-0.625c0.251-0.254,0.534-0.491,0.75-0.787c0.482-0.555,0.84-1.219,1.14-1.897
		c0.58-1.375,0.81-2.856,0.864-4.229c0.064-1.377-0.052-2.656-0.193-3.739c-0.104-0.782-0.233-1.46-0.351-2.012
		c6.389,2.757,11.027,4.456,12.542,4.994c-0.056,1.669-0.234,6.963-0.401,12.786l-0.066-0.079
		c-0.053,0.048-5.273,4.571-12.489,5.584c-2.146-0.94-4.073-1.8-5.86-2.604c0.243-0.053,0.497-0.114,0.767-0.179
		c0.451-0.129,0.942-0.248,1.446-0.427c0.512-0.159,1.038-0.362,1.577-0.587c0.545-0.203,1.074-0.502,1.626-0.758
		c0.525-0.315,1.079-0.598,1.584-0.96c0.502-0.365,1.022-0.7,1.463-1.128c0.229-0.2,0.455-0.401,0.678-0.6
		c0.209-0.209,0.399-0.438,0.596-0.647c0.192-0.217,0.38-0.43,0.566-0.636c0.158-0.227,0.313-0.452,0.464-0.667
		c0.15-0.218,0.296-0.428,0.438-0.631c0.134-0.21,0.229-0.43,0.339-0.631c0.205-0.412,0.412-0.778,0.56-1.116
		c0.123-0.352,0.231-0.655,0.319-0.906c0.176-0.499,0.277-0.787,0.277-0.787s-0.123,0.276-0.337,0.765
		c-0.106,0.239-0.235,0.533-0.384,0.871c-0.171,0.323-0.405,0.669-0.637,1.054c-0.122,0.19-0.23,0.399-0.377,0.589
		c-0.154,0.19-0.312,0.382-0.476,0.581c-0.162,0.2-0.329,0.404-0.499,0.613c-0.194,0.188-0.393,0.377-0.594,0.569
		c-0.205,0.19-0.403,0.394-0.62,0.581c-0.229,0.173-0.459,0.349-0.694,0.524c-0.45,0.374-0.977,0.655-1.479,0.968
		c-0.506,0.308-1.058,0.533-1.575,0.796c-0.549,0.2-1.065,0.446-1.6,0.6c-0.526,0.171-1.038,0.326-1.535,0.438
		c-0.488,0.132-0.962,0.21-1.396,0.296c-0.872,0.148-1.602,0.229-2.11,0.263c-0.257,0.02-0.447,0.025-0.576,0.028
		c-0.137,0.003-0.21,0.006-0.21,0.006l0.002,0.036c-1.137-0.514-2.228-1.011-3.29-1.496c-8.294-3.781-14.287-6.51-28.856-11.949
		c-4.655-1.734-9.037-3.397-13.085-4.952c-2.564-2.129-16.471-14.398-19.237-31.386c1.489,0.563,3.114,1.18,4.868,1.845
		c0.466,0.178,0.944,0.363,1.427,0.55c0.411,0.945,0.959,2.176,1.641,3.604c0.801,1.649,1.751,3.569,2.862,5.575
		c0.277,0.5,0.559,1.011,0.844,1.526c0.3,0.508,0.603,1.023,0.909,1.541c0.597,1.043,1.269,2.066,1.924,3.097
		c0.644,1.038,1.381,2.018,2.056,3.014c0.704,0.974,1.446,1.9,2.137,2.81c0.748,0.871,1.47,1.708,2.155,2.503
		c0.737,0.748,1.434,1.454,2.077,2.104c0.68,0.613,1.328,1.146,1.888,1.635c0.543,0.508,1.108,0.84,1.538,1.152
		c0.874,0.611,1.372,0.958,1.372,0.958S97.583,270.799,96.734,270.156z M102.954,251.811c1.18,0.463,2.361,0.929,3.544,1.397
		c2.835,1.12,5.669,2.238,8.46,3.341c1.291,0.521,2.57,1.04,3.838,1.554c0.853,0.837,1.757,1.786,2.62,2.922
		c0.531,0.639,1.016,1.364,1.544,2.087c0.473,0.765,1.016,1.481,1.5,2.336c0.247,0.418,0.498,0.843,0.751,1.275l0.195,0.32
		l0.158,0.302l0.335,0.638c0.23,0.428,0.373,0.88,0.557,1.323c0.108,0.452,0.278,0.907,0.294,1.354
		c0.094,0.901-0.13,1.727-0.775,2.303c-0.638,0.588-1.641,0.889-2.664,1.023c-2.075,0.256-4.316-0.039-6.477-0.555
		c-2.167-0.531-4.278-1.362-6.197-2.462c-1.919-1.094-3.666-2.438-5.062-3.993c-0.695-0.772-1.346-1.562-1.879-2.396
		c-0.275-0.413-0.533-0.826-0.738-1.244c-0.113-0.204-0.226-0.408-0.337-0.611c-0.099-0.224-0.198-0.449-0.295-0.67
		c-0.733-1.711-1.344-3.449-1.586-5.028c-0.282-1.576-0.137-3.069,0.584-4.023C101.763,252.421,102.352,252.054,102.954,251.811z
		 M127.832,293.546c-0.056-0.773-0.088-1.217-0.088-1.217s0.009,0.443,0.025,1.22c-0.011,0.388,0.061,0.859-0.019,1.395
		c-0.052,0.536-0.111,1.142-0.174,1.8c-0.126,0.649-0.265,1.354-0.411,2.096c-0.179,0.736-0.417,1.501-0.635,2.297
		c-0.271,0.781-0.559,1.585-0.864,2.394c-0.35,0.795-0.664,1.616-1.052,2.408c-0.388,0.789-0.753,1.59-1.18,2.347
		c-0.402,0.768-0.818,1.509-1.245,2.219c-0.831,1.423-1.684,2.706-2.422,3.798c-1.179,1.701-2.097,2.871-2.447,3.306l-6.336,2.698
		c8.787-13.273,10.826-29.516,11.107-32.186l3.404-1.433c0.134,0.054,0.272,0.106,0.406,0.159c1.564,0.619,3.091,1.236,4.582,1.848
		c0.152,0.069,0.296,0.134,0.449,0.206c2.346,1.069,4.818,2.196,7.664,3.466c-1.189,10.5-7.318,17.752-9.543,20.062
		c-3.026,1.354-6.124,2.732-9.197,4.091c0.296-0.454,0.623-0.966,0.969-1.529c0.694-1.149,1.493-2.501,2.259-3.993
		c0.395-0.739,0.778-1.515,1.146-2.315c0.391-0.79,0.72-1.624,1.072-2.445c0.35-0.819,0.625-1.673,0.937-2.496
		c0.267-0.838,0.515-1.669,0.746-2.473c0.18-0.821,0.38-1.602,0.522-2.355c0.107-0.762,0.208-1.479,0.302-2.14
		c0.029-0.67,0.057-1.281,0.081-1.822C127.938,294.408,127.842,293.934,127.832,293.546z M140.743,293.319
		c2.266,1.002,4.779,2.099,7.637,3.321c-2.124,3.735-6.886,8.89-9.01,11.119c-1.801,0.826-3.685,1.683-5.625,2.559
		C136.225,307.291,139.661,301.729,140.743,293.319z M150.454,297.524c1.535,0.653,3.163,1.34,4.904,2.07
		c-0.002,0.14-0.004,0.276-0.006,0.413c-2.049,1.188-6.225,3.227-11.543,5.703C145.571,303.981,148.667,300.781,150.454,297.524z
		 M145.522,293.779c4.793-1.144,8.43-3.513,10.078-4.745c-0.084,3.077-0.163,6.205-0.214,8.948
		C151.628,296.408,148.385,295.021,145.522,293.779z M84.164,268.533c-4.777-1.859-8.954-3.51-12.412-4.895l0.036-0.015
		c-0.069-0.173-6.404-15.935-7.57-26.709c1.06,0.402,2.352,0.893,3.851,1.463C70.264,253.722,79.747,264.342,84.164,268.533z
		 M63.028,247.873c0.001-1.644,0.016-3.086,0.042-4.355c1.656,7.486,4.482,15.327,5.854,18.936
		c-2.594-1.095-4.553-1.931-5.683-2.417C63.09,255.116,63.03,251.115,63.028,247.873z M63.565,268.689l51.335,19.362l-51.435-21.751
		c-0.02-0.491-0.04-0.988-0.058-1.465c2.599,0.974,6.761,2.52,11.94,4.402c2.244,0.807,4.673,1.681,7.244,2.604
		c2.577,0.904,5.295,1.858,8.107,2.844c2.813,0.979,5.742,1.942,8.706,2.946c2.977,0.954,6.003,1.926,9.027,2.897
		c3.038,0.965,5.994,1.97,8.921,3.052c2.192,0.795,4.33,1.616,6.433,2.439l-11.814,6.355l9.33-3.926
		c-0.424,3.673-2.729,19.653-11.594,32.396l-9.746,4.15c0.438-0.502,0.9-1.047,1.391-1.661c0.616-0.736,1.227-1.576,1.891-2.45
		c0.638-0.89,1.312-1.83,1.967-2.832c0.642-1.01,1.33-2.034,1.939-3.13c0.313-0.542,0.631-1.088,0.948-1.639
		c0.292-0.563,0.585-1.13,0.879-1.694c0.612-1.115,1.113-2.287,1.638-3.423c0.549-1.125,0.94-2.299,1.392-3.401
		c0.465-1.097,0.764-2.213,1.117-3.245c0.163-0.519,0.346-1.017,0.478-1.513c0.127-0.497,0.25-0.977,0.37-1.437
		c0.226-0.927,0.477-1.761,0.623-2.521c0.141-0.758,0.266-1.42,0.367-1.964c0.203-1.088,0.319-1.711,0.319-1.711
		s-0.14,0.617-0.383,1.697c-0.122,0.538-0.269,1.194-0.438,1.947c-0.173,0.751-0.455,1.577-0.713,2.486
		c-0.135,0.455-0.275,0.927-0.421,1.417c-0.149,0.488-0.35,0.977-0.531,1.488c-0.39,1.013-0.725,2.105-1.227,3.181
		c-0.489,1.077-0.917,2.222-1.504,3.317c-0.561,1.105-1.099,2.243-1.745,3.326c-0.311,0.547-0.621,1.094-0.931,1.641
		c-0.333,0.53-0.666,1.058-0.996,1.582c-0.641,1.058-1.357,2.045-2.025,3.017c-0.68,0.96-1.379,1.861-2.038,2.712
		c-0.684,0.835-1.313,1.635-1.944,2.333c-1.225,1.429-2.329,2.537-3.103,3.305c-0.23,0.223-0.422,0.403-0.592,0.563l-8.893,3.785
		l-2.398-1.018c0.057-0.053,0.106-0.104,0.169-0.167c0.623-0.62,1.491-1.521,2.479-2.646c0.499-0.562,1.024-1.178,1.564-1.845
		c0.556-0.653,1.091-1.382,1.667-2.118c0.554-0.753,1.123-1.535,1.677-2.341c0.531-0.825,1.114-1.632,1.61-2.497
		c0.516-0.852,1.033-1.702,1.48-2.573c0.231-0.433,0.461-0.859,0.688-1.281c0.205-0.432,0.408-0.862,0.607-1.283
		c0.198-0.421,0.393-0.837,0.584-1.242c0.167-0.415,0.33-0.822,0.489-1.219c0.316-0.792,0.629-1.535,0.838-2.249
		c0.229-0.709,0.438-1.355,0.625-1.932c0.143-0.585,0.269-1.096,0.371-1.517c0.206-0.841,0.323-1.32,0.323-1.32
		s-0.14,0.472-0.385,1.303c-0.122,0.413-0.271,0.918-0.44,1.496c-0.212,0.562-0.452,1.197-0.713,1.889
		c-0.241,0.698-0.587,1.424-0.938,2.193c-0.176,0.385-0.356,0.781-0.541,1.183c-0.208,0.395-0.421,0.796-0.637,1.203
		c-0.217,0.408-0.437,0.82-0.66,1.239c-0.244,0.407-0.491,0.819-0.74,1.235c-0.482,0.838-1.033,1.652-1.582,2.467
		c-0.527,0.829-1.142,1.603-1.702,2.386c-0.584,0.771-1.18,1.513-1.758,2.227c-0.602,0.695-1.16,1.387-1.737,2.004
		c-0.56,0.628-1.104,1.209-1.618,1.733c-1.02,1.057-1.909,1.896-2.54,2.469c-0.265,0.24-0.468,0.419-0.631,0.562
		c-1.841-0.832-3.625-1.639-5.326-2.411c7.291-4.665,5.57-14.153,4.865-16.96l7.256-4.191c0.001,0.391-0.003,0.88-0.021,1.448
		c-0.029,0.733-0.071,1.591-0.164,2.506c-0.082,0.919-0.218,1.893-0.392,2.857c-0.171,0.969-0.411,1.92-0.667,2.807
		c-0.15,0.436-0.295,0.857-0.434,1.259c-0.167,0.388-0.327,0.754-0.472,1.094c-0.176,0.326-0.338,0.625-0.481,0.887
		c-0.132,0.274-0.304,0.475-0.423,0.656c-0.25,0.357-0.393,0.562-0.393,0.562s0.162-0.189,0.444-0.522
		c0.136-0.17,0.329-0.359,0.488-0.619c0.169-0.254,0.362-0.539,0.57-0.851c0.182-0.332,0.377-0.689,0.584-1.066
		c0.179-0.394,0.367-0.809,0.562-1.239c0.345-0.872,0.682-1.825,0.95-2.796c0.27-0.971,0.503-1.953,0.675-2.879
		c0.183-0.93,0.309-1.803,0.409-2.551c0.152-1.197,0.214-2.088,0.232-2.399l13.025-7.52l-40.704,20.234
		c0.029-3.058,0.043-6.275,0.04-9.612c0-0.517-0.002-1.038-0.003-1.56c-0.001-0.259-0.001-0.514-0.002-0.773
		c-0.037-9.794-0.244-20.498-0.767-31.099C63.714,271.998,63.636,270.311,63.565,268.689z M75.851,313.553l5.613-3.239
		c0.271,1.216,0.594,3.181,0.481,5.321c-0.234,4.489-2.21,7.623-5.87,9.316c-1.013-0.461-1.988-0.904-2.919-1.328
		C76.641,320.174,76.582,315.996,75.851,313.553z M70.93,322.612c-2.466-1.121-4.518-2.059-6.018-2.743l8.905-5.142
		C74.185,316.462,74.299,319.8,70.93,322.612z M77.886,328.433c-3.29,1.187-8.643,3.427-13.706,6.909
		c0.106-3.633,0.211-8.072,0.288-13.081L77.886,328.433z M79.859,329.34l7.863,3.62c-5.842,0.111-14.59,1.318-23.665,6.312
		c0.022-0.648,0.045-1.328,0.067-2.057C70.109,332.889,76.858,330.345,79.859,329.34z M63.887,343.864
		c0.03-0.754,0.067-1.708,0.109-2.852c11.089-6.371,21.776-6.798,27.092-6.505l9.446,4.345c-1.743-0.069-3.69-0.033-5.756,0.14
		c-1.234,0.097-2.506,0.24-3.791,0.427c-1.289,0.176-2.59,0.404-3.888,0.645c-5.19,0.993-10.276,2.455-14.04,3.694
		c-2.42,0.793-4.3,1.487-5.336,1.887C66.12,344.901,64.812,344.294,63.887,343.864z M69.527,346.479
		c1.017-0.416,2.361-0.946,3.946-1.526c3.681-1.362,8.67-2.988,13.778-4.155c1.278-0.284,2.56-0.558,3.83-0.778
		c1.268-0.229,2.523-0.416,3.743-0.558c2.283-0.271,4.431-0.374,6.309-0.333l9.403,4.325c-7.11,0.592-19.527,2.258-32.417,6.96
		C74.873,348.935,71.953,347.594,69.527,346.479z M80.076,351.301c14.067-4.897,27.329-6.2,33.282-6.547l24.65,11.341
		c-7.514-1.466-16.188-2.69-24.226-2.69c-11.739,0-21.367,0.971-25.71,1.495C85.294,353.658,82.604,352.446,80.076,351.301z
		 M154.973,385.233c-6.191-3.119-18.611-9.275-31.307-14.961c13.318-1.452,27.657,5.807,31.549,7.946
		C155.116,381.109,155.032,383.503,154.973,385.233z M155.321,375.139c-0.007,0.195-0.013,0.379-0.02,0.569
		c-2.188-1.161-5.929-2.986-10.559-4.603c-6.515-2.273-15.982-4.476-24.799-2.482c-2.661-1.167-5.309-2.297-7.888-3.36
		c-1.647-0.678-3.344-1.387-5.07-2.114c10.289-1.056,31.433-1.772,48.491,7.006C155.423,371.904,155.369,373.575,155.321,375.139z
		 M155.556,367.683c-19.986-9.803-44.841-7.397-52.698-6.295c-4.016-1.725-8.114-3.521-12.089-5.288
		c4.965-0.525,13.251-1.197,23.013-1.197c10.353,0,21.807,2.06,30.375,4.021l11.509,5.296
		C155.629,365.397,155.592,366.555,155.556,367.683z M156.17,346.202c-0.065,2.631-0.129,5.263-0.193,7.853
		c-0.051,1.683-0.101,3.334-0.15,4.969l-62.601-26.547l46.955-23.436c6.688-3.067,12.228-5.707,15.149-7.309
		c-0.009,0.893-0.012,1.693-0.008,2.369c0.031,5.559,0.412,14.1,0.781,22.361c0.125,2.782,0.247,5.506,0.353,8.081
		C156.364,338.34,156.268,342.271,156.17,346.202z M140.373,266.421c-0.815-0.388-1.66-0.787-2.538-1.214
		c-2.063-0.99-4.298-2.062-6.664-3.195c-0.85-0.404-1.725-0.812-2.61-1.22c-1.356-0.669-2.731-1.348-4.144-2.044
		c-10.516-5.199-22.433-11.09-32.582-14.706c-0.792-0.281-1.566-0.559-2.331-0.831c-4.677-2.049-9.043-3.96-12.834-5.623
		c-3.689-1.597-6.837-2.958-9.209-3.984c4.693-2.447,10.462-5.294,16.812-8.329c1.097,0.477,2.493,1.08,4.126,1.774
		c2.006,0.862,4.357,1.844,6.884,2.877c2.515,1.058,5.234,2.104,7.939,3.179c2.703,1.076,5.453,2.042,8.004,3.005
		c1.273,0.488,2.539,0.871,3.721,1.28c1.185,0.398,2.306,0.775,3.34,1.122c1.025,0.374,2.007,0.588,2.856,0.846
		c0.853,0.239,1.597,0.449,2.209,0.621c1.224,0.344,1.923,0.54,1.923,0.54s-0.689-0.229-1.896-0.634
		c-0.603-0.201-1.335-0.444-2.174-0.727c-0.834-0.295-1.798-0.558-2.805-0.979c-1.014-0.396-2.113-0.826-3.275-1.278
		c-1.158-0.466-2.396-0.907-3.644-1.454c-2.498-1.082-5.187-2.176-7.829-3.381c-2.644-1.2-5.297-2.372-7.753-3.544
		c-2.467-1.152-4.76-2.241-6.716-3.198c-0.909-0.438-1.734-0.84-2.485-1.208c5.882-2.796,12.182-5.729,18.521-8.637
		c0.364,0.123,0.747,0.255,1.167,0.399c1.194,0.407,2.586,0.885,4.079,1.396c1.499,0.496,3.06,1.1,4.642,1.666
		c6.318,2.305,12.636,4.609,12.636,4.609s-6.109-2.827-12.219-5.653c-1.532-0.695-3.054-1.435-4.503-2.054
		c-1.216-0.532-2.352-1.029-3.372-1.476c9.826-4.499,19.622-8.893,27.981-12.61c1.519,0.598,3.608,1.421,6.098,2.4
		c2.629,1.046,5.697,2.266,8.985,3.571c3.293,1.295,6.781,2.731,10.278,4.152c3.496,1.423,6.992,2.846,10.269,4.179
		c1.643,0.659,3.203,1.356,4.698,1.987c1.491,0.636,2.9,1.239,4.202,1.795c5.207,2.227,8.679,3.708,8.679,3.708
		s-3.414-1.612-8.534-4.029c-1.281-0.603-2.668-1.259-4.135-1.95c-1.471-0.688-3.008-1.442-4.625-2.163
		c-3.227-1.453-6.668-3.005-10.11-4.559c-3.445-1.55-6.88-3.117-10.125-4.535c-3.239-1.429-6.263-2.763-8.855-3.906
		c-1.571-0.687-2.972-1.3-4.178-1.824c9.587-4.256,16.906-7.453,19.546-8.604c5.046,2.286,27.295,12.435,47.305,22.658
		c0.98,0.5,1.974,0.997,2.962,1.494l2.586,12.321l2.511-9.777c14.784,7.272,29.426,13.804,36.442,16.882
		c-1.879,0.676-4.135,1.49-6.686,2.422c-3.434,1.251-7.389,2.715-11.617,4.3c-2.745-0.993-6.561-2.36-7.695-2.715
		c-0.917-0.287-1.851-0.625-2.806-0.946c-0.956-0.326-1.926-0.66-2.897-0.993c-0.971-0.332-1.942-0.664-2.898-0.993
		c-0.956-0.329-1.904-0.637-2.791-1.004c-1.791-0.701-3.463-1.36-4.896-1.921c-2.873-1.126-4.788-1.88-4.788-1.88
		s1.837,0.923,4.594,2.305c1.382,0.695,2.994,1.503,4.722,2.368c0.857,0.453,1.774,0.843,2.699,1.259
		c0.926,0.416,1.866,0.837,2.807,1.259c0.941,0.421,1.883,0.843,2.81,1.256c0.928,0.41,1.834,0.834,2.728,1.208
		c1.789,0.742,3.459,1.438,4.89,2.028c0.04,0.02,0.076,0.036,0.114,0.053c-4.014,1.519-8.196,3.123-12.377,4.761
		c-1.974,0.787-3.946,1.558-5.896,2.341l-26.671-10.145l23.826,10.388c-0.668,0.441-1.641,1.197-2.575,1.95
		c-0.951,0.388-1.891,0.776-2.816,1.167c-4.659-2.071-15.445-6.783-26.193-10.947c-3.56-1.39-7.119-2.781-10.456-4.085
		c-2.623-1.034-6.751-2.656-8.394-3.301l-1.545-4.665l-7.142,5.756l-7.056-3.145c0.055-0.232,0.104-0.469,0.149-0.712
		c0.001-0.006,0.001-0.011,0.003-0.017c0.033-0.181,0.069-0.362,0.095-0.55l0,0c0.507-3.267-0.314-6.089-2.383-7.138
		c-0.557-0.282-1.165-0.415-1.801-0.415c-2.786,0-6.12,2.581-8.159,6.594c-2.503,4.933-2.104,10.168,0.893,11.688
		c0.557,0.281,1.165,0.415,1.8,0.415c1.927,0,4.115-1.233,5.956-3.319l11.416,4.353l4.61-4.169l4.168,6.089l2.976-1.736
		l-3.767-8.379c1.814,0.817,5.439,2.453,7.811,3.524c3.27,1.464,6.758,3.027,10.246,4.592c10.306,4.583,19.791,8.799,24.061,10.698
		c-1.476,0.62-2.915,1.231-4.29,1.843c-2.101,0.909-4.082,1.777-5.891,2.626c-0.784,0.356-1.534,0.702-2.257,1.04
		c-1.515,0.55-2.953,1.08-4.27,1.582l-28.688-12.512l25.417,13.792c-5.96,2.437-19.819,8.629-21.937,9.574
		C156.06,272.844,149.996,270.773,140.373,266.421z M130.13,233.279c0.569-1.264,1.479-2.581,2.913-3.125
		c3.117-1.187,3.242,1.809,3.242,1.809s1.941-3.337,1.176-4.743c0.004,0.003,0.008,0.003,0.011,0.003
		c0.495,0.25,0.848,0.794,1.063,1.515c0.71,7.109-7.736,10.269-7.736,10.269s0,0.625,2.586,0.312c0.805-0.098,1.426-0.243,1.9-0.396
		c-1.346,1.445-2.881,2.338-4.063,2.338c-0.297,0-0.554-0.059-0.784-0.173C128.938,240.325,128.57,236.929,130.13,233.279z
		 M142.411,236.89l4.354,1.943l1.253,0.558l1.069-0.859l4.622-3.728l1.475,4.456l-0.204-0.266l-1.482-1.919l-1.799,1.626
		l-3.591,3.248l-6.669-2.545C142.083,239.011,142.323,237.83,142.411,236.89z M252.335,339.249
		c-4.363,2.524-19.726,11.153-40.8,20.037c-20.76,8.754-44.285,21.927-52.228,26.472c-0.043-2.294-0.113-5.99-0.201-10.589
		c-0.085-3.948-0.185-8.559-0.292-13.497c-0.057-2.469-0.116-5.022-0.175-7.612c-0.074-2.592-0.15-5.227-0.226-7.86
		c-0.151-5.266-0.303-10.53-0.443-15.466c-0.056-2.468-0.167-4.853-0.272-7.116c-0.102-2.264-0.198-4.4-0.288-6.376
		c-0.356-7.892-0.593-13.15-0.593-13.15c-0.038-6.859,0.621-26.462,0.731-29.695c2.67-1.194,17.317-7.732,22.562-9.816
		c5.251-2.087,13.405-4.931,21.29-7.68c7.945-2.768,16.16-5.633,21.466-7.745c2.071-0.823,5.211-2.157,8.715-3.672
		c4.584-1.449,8.87-2.783,12.563-3.912c3.288-1.008,6.101-1.855,8.241-2.498c0.115,9.014,0.157,21.643,0.159,34.966
		C252.549,301.701,252.377,332.226,252.335,339.249z"/>
	<g>
		<path fill="#333333" d="M238.716,302.664c0,0-4.735,6.362-14.159,8.647c-1.54,0.366-3.038,0.784-4.497,1.231
			c-1.925,3.068-4.676,5.775-8.715,3.725c-0.225-0.114-0.429-0.238-0.634-0.354c-3.358,1.364-6.211,2.64-8.358,3.435
			c0,0,0.001,0,0.002,0c0,0-3.751,2.464-14.159,2.285c-5.181-0.089-10.415-2.025-14.468,0.165c0.015,0.036,6.55,19.77,22.23,27.681
			c19.205,6.911,34.943-5.801,34.943-5.801C246.341,330.062,238.716,302.664,238.716,302.664z"/>
		<path fill="#999999" d="M209.641,290.568c0,0,0.206,9.328,9.062,10.972c8.856,1.641,18.314-14.923,13.951-24.527
			c-4.362-9.604-4.362-9.604-4.362-9.604s3.566-6.01,5.165-7.327c1.6-1.316,1.6-1.316,1.6-1.316s-7.605,3.693-9.717,6.869
			c-2.112,3.175-2.344,5.148-2.344,5.148s1.182,1.629,1.771,4.409c0.589,2.775,3.084,7.706,0.125,13.488
			c-2.961,5.781-11.511,13.165-13.31,3.761C209.895,283.623,209.641,290.568,209.641,290.568z"/>
		<path fill="#999999" d="M201.336,281.717c0,0,4.562,3.182,4.997,13.727c0.434,10.542-7.89,15.28-15.525,11.25
			c-7.635-4.032-8.374-6.184-8.374-6.184s13.245,9.036,18.276,2.4C205.74,296.271,201.336,281.717,201.336,281.717z"/>
		<path fill="#999999" d="M167.83,288.062c0,0,1.636,17.853,12.958,22.897c10.623,4.738,14.691,0.479,14.691,0.479
			s-18.526,0.338-22.61-14.743c-2.194-8.104-0.651-10.013-0.651-10.013L167.83,288.062z"/>
		<path fill="#333333" d="M207.908,281.619c0,0-1.97,5.48,1.62,5.782c-0.095,2.905,0.205,10.383,5.827,10.327
			c5.75-0.059,7.165-5.02,7.165-5.02s-4.972,6.194-8.512,2.073c-2.281-2.653-2.396-5.838-2.192-7.771
			c3.908-1.661,6.713-8.293,10.402-14.925c0.732,0.641,2.324,2.449,3.272,6.567c1.266,5.483-1.164,11.095-1.164,11.095
			s2.835-4.462,2.257-10.949c-0.073-0.812-0.192-1.561-0.344-2.249c0.442,1.281,0.852,2.807,1.183,4.64
			c1.872,10.377-5.576,17.6-5.576,17.6s7.376-4.498,8.284-14.856c0.746-8.502-3.712-14.283-5.336-16.086
			c4.955-6.979,12.31-10.132,12.31-10.132s-8.428,1.152-14.9,11.047C219.628,272.702,209.311,290.992,207.908,281.619z"/>
		<path fill="#333333" d="M205.065,286.319c-2.019-12.173-7.87-15.25-7.87-15.25s0,0,1.534,1.771
			c1.534,1.774,2.212,4.696,2.212,4.696s-0.89-1.378-3.935-3.158s-6.758-1.439-6.758-1.439s4.427,0.825,8.188,4.199
			C202.201,280.51,205.065,286.319,205.065,286.319z"/>
		<path fill="#333333" d="M201.318,269.968c0.208,0.466,0.417,0.962,0.66,1.462c0.254,0.496,0.428,1.04,0.677,1.565
			c0.116,0.265,0.234,0.532,0.351,0.803l0.299,0.82c0.203,0.545,0.46,1.083,0.59,1.633c0.145,0.544,0.352,1.079,0.487,1.591
			c0.256,1.085,0.523,2.092,0.778,2.952c0.104,0.427,0.203,0.817,0.298,1.166c0.083,0.35,0.196,0.655,0.234,0.907
			c0.048,0.25,0.102,0.452,0.132,0.591c0.014,0.137,0.021,0.21,0.021,0.21s0.019-0.07,0.053-0.21
			c0.016-0.139,0.047-0.343,0.068-0.607c0.035-0.269,0.021-0.581,0.016-0.946c-0.007-0.368-0.01-0.784-0.042-1.233
			c-0.079-0.888-0.2-1.919-0.361-3.017c-0.113-0.574-0.244-1.142-0.399-1.728c-0.129-0.594-0.374-1.151-0.574-1.727l-0.336-0.852
			c-0.129-0.275-0.258-0.55-0.385-0.819c-0.261-0.542-0.516-1.075-0.807-1.568c-0.28-0.497-0.571-0.972-0.843-1.421
			c-0.286-0.44-0.571-0.848-0.835-1.225c-0.253-0.383-0.528-0.712-0.755-1.007c-0.225-0.299-0.441-0.55-0.62-0.754
			c-0.354-0.41-0.573-0.631-0.573-0.631s0.488,1.113,1.254,2.734C200.891,269.066,201.091,269.51,201.318,269.968z"/>
		<path fill="#333333" d="M206.829,279.097c0,0,1.263-3.354,5.629-9.174c2.953-3.935,4.265-5.285,4.806-5.748
			c-1.119,0.798-4.761,3.472-6.635,5.771c-2.229,2.734-2.742,3.541-2.742,3.541s-0.835-3.912-2.701-6.533
			c0,0,0.717,1.465,1.123,5.807C206.715,277.097,206.829,279.097,206.829,279.097z"/>
		<g>
			<path fill="#333333" d="M175.79,272.638c0.602-0.296,0.789-1.053,0.417-1.691c-0.37-0.636-1.159-0.915-1.761-0.619
				c-0.602,0.296-0.789,1.052-0.418,1.688C174.399,272.654,175.188,272.933,175.79,272.638z"/>
			<path fill="#333333" d="M175.857,273.584c-0.383,0.188-0.502,0.669-0.267,1.076c0.237,0.404,0.738,0.584,1.122,0.396
				c0.384-0.189,0.503-0.672,0.266-1.077C176.743,273.572,176.24,273.396,175.857,273.584z"/>
			<path fill="#333333" d="M181.437,274.523c0.886-0.326,1.255-1.397,0.824-2.391c-0.434-0.997-1.501-1.541-2.389-1.214
				c-0.886,0.323-1.255,1.392-0.822,2.388C179.482,274.304,180.551,274.848,181.437,274.523z"/>
		</g>
		<path fill="#FFFFFF" d="M246.82,331.111c-14.211-11.797-24.439-0.014-24.439-0.014s-9.585-0.728-18.681,2.148
			c-13.313,4.088-10.037,15.099-10.037,15.099c2.083,1.8,4.307,2.83,6.517,3.344c4.08,0.627,7.539,0.147,10.279-0.721
			c1.033-0.343,1.969-0.729,2.779-1.104c2.905-1.412,4.473-3.011,4.473-3.011s1.174-0.472,1.305,11.187
			c0.125,11.627,10.572,18.243,18.438,18.179C255.829,376.073,268.569,349.938,246.82,331.111z"/>
		<path fill="#333333" d="M236.835,342.834c0,0-8.587-11.858-21.253-11.585C202.923,331.553,222.674,317.564,236.835,342.834z"/>
		<path fill="#333333" d="M204.098,316.042L204.098,316.042c0.001,0,0.017,0,0.042,0c0.292-0.004,0.584-0.007,0.859-0.01
			c-0.012,0.017-0.026,0.034-0.039,0.052c1.051,0.075,2.916,0.301,4.752,0.962c2.74,0.987,8.756,1.456,11.385-1.929
			c0.39-0.502,0.711-1.037,0.923-1.59c0.322-0.801,0.453-1.602,0.461-2.36c0.134-0.207,0.279-0.416,0.456-0.62
			c0.162-0.187,0.3-0.398,0.488-0.571c0.185-0.177,0.347-0.374,0.545-0.53c0.201-0.151,0.375-0.332,0.586-0.443l0.294-0.185
			c0.101-0.051,0.202-0.093,0.298-0.14c0.187-0.101,0.384-0.131,0.552-0.188c0.174-0.025,0.33-0.056,0.471-0.05
			c0.139-0.012,0.26,0.017,0.359,0.03c0.101,0.018,0.176,0.043,0.235,0.067c0.044,0.022,0.112,0.045,0.073,0.048
			c-0.036-0.003,0.033,0.022,0.026,0.02c0.723,0.22,1.502-0.143,1.741-0.804c0.237-0.665-0.155-1.382-0.877-1.603
			c0,0-0.061-0.008-0.17-0.027c-0.167-0.033-0.292-0.036-0.495-0.042c-0.188-0.003-0.413,0.009-0.659,0.045
			c-0.243,0.039-0.517,0.09-0.787,0.189c-0.28,0.087-0.548,0.224-0.824,0.368c-0.254,0.168-0.534,0.332-0.754,0.548
			c-0.116,0.105-0.235,0.206-0.345,0.315c-0.098,0.117-0.198,0.23-0.299,0.351c-0.212,0.227-0.351,0.488-0.521,0.731
			c-0.165,0.245-0.272,0.511-0.405,0.759c-0.05,0.093-0.086,0.185-0.123,0.279c-0.09-0.433-0.212-0.843-0.364-1.211
			c-0.109-0.276-0.237-0.525-0.371-0.762c-0.51-1.275-1.362-2.409-2.493-3.197c-0.303-0.216-0.735-0.163-0.967,0.116
			c-0.231,0.277-0.172,0.675,0.13,0.888c0.917,0.645,1.604,1.564,2.024,2.601c0.053,0.229,0.103,0.463,0.133,0.711
			c0.151,1.181,0.008,2.587-0.666,3.793c-0.325,0.61-0.797,1.144-1.352,1.604c-0.574,0.447-1.248,0.81-1.999,1.063
			c-0.182,0.064-0.353,0.111-0.528,0.173l-0.641,0.151c-0.2,0.033-0.399,0.066-0.597,0.105l-0.588,0.064
			c-0.778,0.05-1.514-0.017-2.196-0.216c-1.367-0.384-2.495-1.332-3.305-2.307c-0.172-0.201-0.326-0.405-0.475-0.605
			c-0.871-1.636-1.137-3.195-1.141-3.22c-0.057-0.347-0.405-0.593-0.783-0.534c-0.376,0.052-0.636,0.371-0.582,0.718
			c0.018,0.117,0.309,1.83,1.292,3.646c0.091,0.241,0.191,0.485,0.313,0.74c0.015,0.03,0.035,0.066,0.051,0.098
			c-0.642,0.002-5.504,0.069-11.411,1.328c-6.342,1.351-9.024,2.824-9.024,2.824s3.812-1.646,12.869-2.107
			C201.33,316.098,202.79,316.055,204.098,316.042z"/>
		<path fill="#333333" d="M175.431,299.308c-8.103-12.06,5.915-21.542,16.158-15.994c10.243,5.547,8.702,19.505,5.108,21.347
			c-3.33,1.704-5.657,0.312-5.983,0.097c0.722,0.48,10.99,7.135,13.452-2.768c0.264-4.42-1.305-9.948-4.768-15.609
			c-7.831-12.802-39.502-7.358-31.467,9.432c8.201,17.136,21.484,15.701,26.574,15.64c2.084-0.025,3.833-0.494,5.25-1.317
			C197.59,310.231,182.922,310.461,175.431,299.308z"/>
		<path fill="#333333" d="M181.247,317.515c0,0-1.683-2.701-7.611-2.759c-5.929-0.06-8.269,5.424-8.269,5.424
			S171.635,315.527,181.247,317.515z"/>
		<path fill="#999999" d="M217.284,343.828c0,0,3.804,22.71,16.269,24.254c21.863,2.712,25.189-28.122,12.466-36.688
			c-12.722-8.568,13.19,3.736,13.604,18.165c0.413,14.429-7.98,26.121-17.244,26.606c-9.264,0.479-18.405-2.701-22.424-11.307
			C215.935,356.253,219.318,348.278,217.284,343.828z"/>
		<path fill="#FFFFFF" d="M191.953,323.857c0,0-0.119,4.548,1.846,5.104c1.963,0.553,4.805-0.461,5.593-0.905
			c1.909-1.073-0.218-5.44-0.218-5.44S196.095,324.287,191.953,323.857z"/>
		<path fill="#FFFFFF" d="M223.49,313.396c0,0-0.118,4.545,1.845,5.098c1.964,0.555,4.804-0.458,5.594-0.901
			c1.908-1.074-0.218-5.44-0.218-5.44S227.631,313.823,223.49,313.396z"/>
		<path fill="#FFFFFF" d="M202.663,321.482c0,0,0.837,2.416,1.361,3.042c0.525,0.628,1.449,0.856,2.932,0.192
			c1.485-0.665,3.437-1.688,3.098-3.003c-0.34-1.314-1.454-2.987-1.454-2.987S203.809,321.153,202.663,321.482z"/>
		<path fill="#999999" d="M168.343,326.773c0,0,2.09,10.519,15.1,21.798c13.008,11.275,27.386,8.14,27.386,8.14
			s-3.274,3.856-17.343,2.324c-14.068-1.529-19.39-9.565-19.39-9.565l9.406,3.569C183.502,353.039,169.34,340.217,168.343,326.773z"
			/>
		<path fill="#999999" d="M240.97,254.946c0,0,4.788,14.478-0.965,31.225c-5.751,16.747-13.244,16.814-11.887,13.65
			c0.895-2.091,6.837-15.626,10.357-28.112C240.29,265.273,241.462,259.115,240.97,254.946z"/>
		<path fill="#333333" d="M240.537,271.929l-0.006,0.017c0,0-0.144,0.374-0.359,1.03c-0.103,0.326-0.236,0.72-0.359,1.177
			c-0.121,0.455-0.293,0.96-0.461,1.513c-0.174,0.556-0.354,1.152-0.524,1.786c-0.206,0.625-0.434,1.28-0.623,1.964
			c-0.191,0.689-0.488,1.367-0.692,2.088c-0.211,0.714-0.51,1.411-0.761,2.126c-0.243,0.717-0.541,1.415-0.803,2.111
			c-0.322,0.676-0.55,1.376-0.859,2.019c-0.308,0.642-0.566,1.28-0.865,1.866c-0.281,0.594-0.573,1.142-0.826,1.663
			c-0.285,0.5-0.517,0.982-0.758,1.39c-0.239,0.41-0.447,0.771-0.619,1.068c-0.186,0.288-0.315,0.53-0.42,0.682
			c-0.104,0.155-0.16,0.239-0.16,0.239l-0.008,0.011c-0.016,0.025-0.013,0.06,0.01,0.079c0.026,0.025,0.069,0.025,0.096,0
			c0,0,0.303-0.273,0.774-0.793c0.233-0.263,0.513-0.581,0.812-0.965c0.312-0.371,0.623-0.82,0.975-1.303
			c0.329-0.494,0.7-1.022,1.039-1.608c0.363-0.574,0.698-1.202,1.046-1.853c0.35-0.65,0.656-1.345,0.993-2.04
			c0.287-0.711,0.613-1.426,0.877-2.16c0.242-0.735,0.531-1.464,0.731-2.204c0.201-0.733,0.434-1.453,0.596-2.161
			c0.162-0.707,0.318-1.39,0.466-2.041c0.114-0.654,0.222-1.274,0.322-1.844c0.104-0.572,0.19-1.097,0.233-1.565
			c0.055-0.467,0.103-0.874,0.142-1.211c0.079-0.67,0.124-1.053,0.124-1.053c0.003-0.027-0.014-0.056-0.045-0.063
			C240.588,271.879,240.551,271.898,240.537,271.929z"/>
		<path fill="#333333" d="M243.309,304.141c0,0,1.651,5.613,1.262,11.086c-0.386,5.472-2.844,11.667-2.844,11.667l1.547,0.471
			C243.274,327.364,249.281,318.727,243.309,304.141z"/>
		<path fill="#999999" d="M196.966,350.341c0,0,7.895-8.146,16.476-4.68S207.142,354.104,196.966,350.341z"/>
		<path fill="#333333" d="M213.828,342.324c0,0,3.718,0.532,3.777,11.069c0.053,10.511-1.148,20.143,17.134,23.587
			c17.888,3.552,33.375-19.24,20.198-39.941c-13.008-20.013-26.983-10.285-26.983-10.285s13.364-4.023,23.233,10.311
			c13.777,20.417,0.143,40.942-17.325,37.209C209.877,369.451,226.319,343.498,213.828,342.324z"/>
	</g>
</g>
</svg>
