<?xml version="1.0" encoding="utf-8"?>
<!-- Generator: Adobe Illustrator 16.0.0, SVG Export Plug-In . SVG Version: 6.00 Build 0)  -->
<!DOCTYPE svg PUBLIC "-//W3C//DTD SVG 1.1//EN" "http://www.w3.org/Graphics/SVG/1.1/DTD/svg11.dtd">
<svg version="1.1" id="Layer_1" xmlns="http://www.w3.org/2000/svg" xmlns:xlink="http://www.w3.org/1999/xlink" x="0px" y="0px"
	 width="600px" height="600px" viewBox="0 0 600 600" enable-background="new 0 0 600 600" xml:space="preserve">
<g>
	<g>
		<g>
			<path fill="#333333" d="M544.015,362.691c0.179,0.013,0.273,0.021,0.273,0.021s-2.779-35.776-7.229-76.167
				c-3.369-30.593-5.042-32.41-6.178-59.396c-2.688,15.542,1.336,45.302,1.336,45.302s-4.487-18.491-3.74-33.905
				c0.601-12.339,1.563-18.641,1.923-20.667c-0.684,0.004-3.849,0.032-9.094,0.258c-0.014,0.001-0.031,0.001-0.046,0.001
				c-8.218,0.251-12.982,6.396-20.778,4.993c-6.854-1.231-18.898-1.325-33.13-0.427c-1.921,0.145-3.882,0.283-5.878,0.418
				c-0.034,0.004-0.068,0.005-0.104,0.008c-16.805,1.331-25.157,6.39-52.589,5.892c-27.431-0.5-65.566,2.024-65.566,2.024l0,0
				c-2.957,0.198-4.781,0.319-4.781,0.319s0.213,7.195-1.916,25.33c-0.266,2.253-0.492,4.371-0.687,6.356
				c0.925-3,1.88-6.124,2.629-8.646c1.672-5.629,1.495-13.889,1.336-17.274c-0.052-0.958-0.089-1.53-0.089-1.53
				s0.043,0.569,0.089,1.53c0.251,4.636,0.846,18.52-0.766,22.923c-2.25,6.145-4.408,21.685-4.408,21.685
				s-6.011,5.585-16.655,12.811c-2.963,2.012-5.926,4.194-8.58,6.231c5.15-3.238,16.167-7.61,16.167-7.61s-7.854,6.173-12.717,7.612
				c-4.052,1.198-6.792,4.377-8.843,5.903c-1.186,5.395-3.688,8.918-3.688,8.918s0.625-3.168,1.372-6.849
				c0.581-2.862,0.711-9.746,0.74-12.332c-1,0.778-9.367,7.281-15.921,13.606c-13.123,12.666-21.25,18.648-21.25,18.648l23.827-9.09
				c2.005-3.282,2.815-7.209,2.815-7.209s0.188,4.171-0.748,7.078c-0.935,2.908-3.904,12.887-3.904,12.887s10.588-5.014,24.4-7.189
				c15.6-2.459,20.954-6.176,20.954-6.176c-0.686,8.785-1.127,9.855-1.428,16.424c2.935-8.061,3.555-14.414,3.555-14.414
				s0.748,8.527-1.745,15.455c-2.416,6.713-2.991,24.954-2.993,24.967c37.035-4.146,91.519,0.398,70.197-0.719
				c-21.32-1.119-71.021,3.794-71.021,3.794s62.605-2.581,73.173-1.646c7.192,0.636,56.538,0.28,71.537-0.785
				c25.927-1.845,55.518-0.312,66.253,0.37c0.439-4.069,0.787-12.852-1.493-27.422c-3.316-21.195-5.66-52.581-5.66-52.581
				s1.248,13.931,3.99,27.396C539.299,321.318,542.987,353.533,544.015,362.691z M534.088,356.574c0,0,1.311-1.869,2.059-8.041
				c0.749-6.171-1.685-20.387-1.685-20.387s0.937,2.432,2.619,10.474c1.684,8.042,0,20.948,0,20.948s-4.302,0-15.82-1.496
				c-11.518-1.498-15.414-0.75-15.414-0.75C514.077,354.33,534.088,356.574,534.088,356.574z"/>
			<path fill="#333333" d="M373.999,227.901c0,0,21.532-1.869,36.698-0.624c15.166,1.247,31.001-2.743,31.999-3.117
				C443.693,223.788,403.68,223.662,373.999,227.901z"/>
			<path fill="#333333" d="M474.615,219.673c0,0,15.708-0.632,23.315,0.623c7.608,1.254,12.801-1.746,14.692-2.494
				c1.891-0.748,1.891-0.748,1.891-0.748h-12.719c0,0,1.647,0.645,2.713,0.685c3.241,0.125,4.583,0.687,4.583,0.687
				S484.695,217.931,474.615,219.673z"/>
		</g>
		<path fill="#999999" d="M155.352,299.476c0,0-12.646,7.489-28.73,14.42c-16.084,6.932-38.278,16.531-38.278,16.531
			s24.658,11.993,39.275,17.541c14.618,5.549,30.169,13.643,30.169,13.643l-1.117,26.172l-96.132-41.968l2.245-26.485l62.591-34.038
			l-17.323-6.607l-46.016-18.828l0.25-25.31l1.994-0.188c0,0,42.952,15.164,55.64,22.015c12.688,6.85,25.405,12.681,30.393,14.441
			c4.988,1.761,6.608,2.633,6.608,2.633L155.352,299.476z"/>
		<g>
			<g>
				<path fill="#999999" d="M215.208,288.791c0,0,0.09,11.029,9.677,13.085c9.588,2.058,20.09-17.393,15.494-28.802
					c-4.597-11.408-4.597-11.408-4.597-11.408s3.957-7.056,5.711-8.59c1.754-1.535,1.754-1.535,1.754-1.535
					s-8.307,4.262-10.646,7.989c-2.336,3.725-2.618,6.053-2.618,6.053s1.258,1.943,1.858,5.233c0.601,3.29,3.238,9.149-0.058,15.944
					c-3.296,6.794-12.681,15.408-14.498,4.269C215.583,280.588,215.208,288.791,215.208,288.791z"/>
				<path fill="#999999" d="M205.488,279.977c0,0,4.905,3.82,5.224,16.289c0.319,12.467-8.783,17.953-17.011,13.092
					c-8.229-4.863-9-7.416-9-7.416s12.102,9.129,17.658,1.352c5.556-7.776,0.818-13.012,0.818-13.012s3.399,1.869,4.755-0.5
					C209.287,287.412,205.488,279.977,205.488,279.977z"/>
				<path fill="#999999" d="M169.865,285.277c0,0,1.518,21.119,13.734,27.234c11.462,5.736,15.939,0.758,15.939,0.758
					s-17.095,1.004-21.31-16.874c-2.264-9.606-3.582-12.69-3.582-12.69L169.865,285.277z"/>
				<path fill="#999999" d="M248.936,248.388c0,0,4.988,17.171-1.496,36.89c-6.483,19.717-14.615,19.699-13.097,15.977
					c1.001-2.459,7.645-18.376,11.646-33.088C248.051,260.583,249.411,253.321,248.936,248.388z"/>
				<path fill="#999999" d="M231.201,334.22c-5.45-0.853-19.72,1.202-31.789,13.044c-4.21,4.133-5.955,11.566-8.5,12.092
					c-4.75,0.983-8.678-8.959-11.187-16.832c-3.854-12.096-5.344-21.482,3.261-19.322s9.967,4.484,16.949,1.119
					c6.982-3.367,7.606-4.677,7.606-4.677l0.81-3.892l-0.419-1.092l-15.291,2.801l-5.477,1.807c0,0-1.225-3.447-6.493-4.709
					c-4.694-1.125-12.55,0.088-15.266,11.125c-0.325,1.476-1.763,11.061,2.277,20.33c5.965,13.691,13.916,14.589,13.916,14.589
					s-6.903,0.798-12.956-6.468c3.953,9.354,17.475,15.766,24.31,9.365c13.463-12.604,12.488-18.434,26.677-24.779
					C233.206,332.646,236.651,335.07,231.201,334.22z M169.015,329.556c0,0,0.654-10.474,5.632-12.718
					c4.979-2.244,9.235,1.396,9.235,1.396C172.848,317.854,169.015,329.556,169.015,329.556z"/>
			</g>
			<path fill="#999999" d="M178.239,327.231c0,0,6.974,3.697,10.346,4.195c3.372,0.499,5.83,1.024,5.83,1.024l2.279-3.144
				l0.873,2.831c0,0,14.963-4.449,19.72-8.938c4.757-4.49,9.045-14.717,11.869-15.465c2.825-0.747,9.758-2.081,4.889,5.533
				c-4.869,7.613-14.284,15.289-14.284,15.289s7.356-0.941,10.848,3.893c3.49,4.836-3.367,3.09-3.367,3.09l-3.381-1.062
				c0,0,0.014-3.551-3.228-3.053c-3.241,0.499-5.451,1.429-4.534,2.46c0.918,1.031,0.118,3.699,0.118,3.699l-6.73,3.315
				c0,0,0.05-3.917-3.317-4.327s-6.094,1.687-6.758,3.207c-0.664,1.52,2.27,7.855,2.27,7.855l-5.735,3.26
				c0,0,0.129-9.481-3.617-8.345c-3.746,1.14-9.9,5.456-9.75,7.202c0.149,1.746-4.714-6.66-5.336-13.18
				C176.62,330.055,178.239,327.231,178.239,327.231z"/>
		</g>
		<g>
			<path fill="#999999" d="M237.111,372.572c-4.571,1.68-7.895,3.047-9.697,3.813c-0.975,0.428-1.545,0.675-1.545,0.675
				s0.537-0.244,1.545-0.675c4.545-1.99,17.982-7.963,24.673-11.852c-3.853-1.839-12.351-5.881-22.304-10.552l-73.113,33.801
				l-65.333-29.717l-24.219,11.268c0,0,1.497,0.64,4.079,1.758c4.079,1.758,18.895,5.596,29.925,9.21
				c11.035,3.615,16.271,7.792,29.55,16.771c9.767,6.603,15.038,9.779,17.145,10.995c11.344,6.397,11.346,6.399,11.346,6.399
				s13.239-12.719,24.931-20.2c9.232-5.905,20.551-10.91,28.732-13.965c8.18-3.055,8.18-3.055,8.18-3.055
				s-12.746,6.144-20.76,11.409c-6.646,4.366-10.204,7.201-10.204,7.201s25.877-11.357,36.413-16.219
				c0.004,0,0.008-0.003,0.012-0.005c3.475-1.685,6.464-3.086,8.729-4.069c17.229-7.482,19.1-9.976,19.1-9.976
				S244.239,369.953,237.111,372.572z"/>
			<path fill="#999999" d="M198.534,388.282c0,0-8.573,4.583-12.408,9.444c-3.833,4.863-20.759,14.12-20.759,14.12
				S189.058,390.9,198.534,388.282z"/>
			<path fill="#999999" d="M148.066,411.847c0,0-16.645-9.538-27.679-17.767c-11.035-8.23-15.337-11.658-24.501-13.03
				c-9.164-1.37-22.442-6.048-22.442-6.048s19.263,6.547,29.736,11.783C113.654,392.022,139.362,409.409,148.066,411.847z"/>
		</g>
		<path fill="#824A3A" d="M223.86,257.699c0.233-0.176,0.376-0.282,0.376-0.282S224.145,257.441,223.86,257.699z"/>
		<g>
			<path fill="#333333" d="M245.417,271.86l-0.007,0.02c0,0-0.162,0.442-0.405,1.211c-0.117,0.385-0.267,0.851-0.408,1.387
				c-0.137,0.537-0.332,1.134-0.521,1.784c-0.197,0.65-0.4,1.355-0.596,2.1c-0.231,0.738-0.488,1.51-0.703,2.317
				c-0.218,0.808-0.549,1.61-0.781,2.454c-0.239,0.843-0.574,1.666-0.857,2.506c-0.273,0.843-0.606,1.663-0.901,2.485
				c-0.358,0.791-0.616,1.617-0.961,2.372c-0.344,0.753-0.634,1.509-0.965,2.195c-0.314,0.698-0.639,1.343-0.921,1.954
				c-0.317,0.586-0.574,1.155-0.841,1.632c-0.266,0.483-0.498,0.906-0.688,1.254c-0.206,0.336-0.351,0.624-0.466,0.803
				c-0.115,0.183-0.177,0.28-0.177,0.28l-0.008,0.014c-0.018,0.029-0.016,0.066,0.008,0.091c0.028,0.03,0.076,0.03,0.104,0.002
				c0,0,0.332-0.32,0.852-0.928c0.255-0.307,0.564-0.681,0.896-1.128c0.344-0.438,0.688-0.964,1.077-1.528
				c0.362-0.579,0.774-1.197,1.15-1.887c0.402-0.674,0.775-1.414,1.162-2.177c0.39-0.762,0.731-1.578,1.106-2.396
				c0.322-0.838,0.687-1.677,0.983-2.539c0.274-0.871,0.598-1.726,0.826-2.597c0.229-0.868,0.493-1.713,0.679-2.547
				c0.186-0.834,0.365-1.642,0.535-2.408c0.133-0.771,0.259-1.501,0.375-2.175c0.12-0.674,0.221-1.292,0.276-1.844
				c0.065-0.551,0.123-1.032,0.171-1.427c0.094-0.792,0.148-1.244,0.148-1.244c0.003-0.034-0.016-0.065-0.048-0.078
				C245.473,271.803,245.431,271.822,245.417,271.86z"/>
			<g>
				<path fill="#333333" d="M179.788,304.043c6.558,9.959,15.161,9.203,15.161,9.203s-8.855-1.892-13.521-10.717
					c-3.771-7.134-4.831-15.792-5.099-18.854c8.323-1.482,14.61,1.668,21.113,5.12c1.755,0.931,3.385,1.62,4.848,2.069
					c1.309,2.725,4.307,10.908-2.831,14.312c-8.197,3.907-16.014-5.423-16.014-5.423s3.656,9.331,15.384,7.819
					c9.568-1.234,7.804-12.121,6.83-16.088c3.416,0.082,4.877-2.083,3.004-6.61c-3.025-7.313-9.708-8.953-9.708-8.953
					s3.783,1.639,7.062,8.083c3.279,6.445,0.125,6.417-12.61-0.265c-6.163-3.234-12.38-2.656-17.161-1.203v-0.001l-0.01,0.005
					c-5.094,1.551-8.553,4.099-8.553,4.099c2-0.99,3.885-1.731,5.676-2.261C173.359,284.386,173.232,294.083,179.788,304.043z"/>
				<path fill="#333333" d="M213.455,278.192c0,0-2.217,6.449,1.675,6.854c-0.145,3.431,0.073,12.272,6.175,12.28
					c6.242,0.006,7.849-5.837,7.849-5.837s-5.484,7.255-9.267,2.337c-2.436-3.167-2.517-6.93-2.267-9.214
					c4.265-1.907,7.405-9.713,11.504-17.501c0.786,0.769,2.486,2.928,3.457,7.808c1.294,6.495-1.424,13.095-1.424,13.095
					s3.142-5.233,2.607-12.913c-0.066-0.958-0.185-1.844-0.341-2.659c0.462,1.518,0.885,3.331,1.217,5.496
					c1.883,12.292-6.305,20.728-6.305,20.728s8.07-5.218,9.206-17.448c0.931-10.038-3.824-16.93-5.561-19.082
					c5.478-8.183,13.505-11.812,13.505-11.812s-9.165,1.254-16.331,12.862C226.302,267.804,214.843,289.288,213.455,278.192z"/>
				<path fill="#333333" d="M210.304,283.705c-2.018-14.408-8.323-18.123-8.323-18.123s0,0,1.64,2.115
					c1.639,2.117,2.333,5.578,2.333,5.578s-0.946-1.639-4.224-3.782c-3.28-2.146-7.315-1.795-7.315-1.795s4.792,1.038,8.827,5.074
					C207.277,276.804,210.304,283.705,210.304,283.705z"/>
				<path fill="#333333" d="M206.471,264.332c0.218,0.555,0.438,1.143,0.695,1.737c0.269,0.59,0.449,1.236,0.711,1.861
					c0.122,0.315,0.247,0.632,0.37,0.951l0.312,0.976c0.212,0.647,0.484,1.286,0.617,1.938c0.149,0.645,0.366,1.281,0.506,1.887
					c0.262,1.287,0.538,2.479,0.803,3.498c0.105,0.506,0.208,0.969,0.306,1.384c0.084,0.413,0.202,0.775,0.241,1.073
					c0.049,0.298,0.104,0.537,0.135,0.7c0.013,0.164,0.02,0.252,0.02,0.252s0.021-0.086,0.061-0.248
					c0.018-0.165,0.055-0.406,0.082-0.718c0.041-0.316,0.03-0.688,0.031-1.122c-0.002-0.432,0-0.924-0.028-1.457
					c-0.073-1.049-0.19-2.27-0.349-3.57c-0.113-0.678-0.249-1.351-0.409-2.045c-0.131-0.703-0.389-1.366-0.598-2.05l-0.352-1.009
					c-0.137-0.326-0.272-0.651-0.406-0.975c-0.275-0.64-0.543-1.277-0.853-1.863c-0.295-0.593-0.605-1.155-0.895-1.688
					c-0.303-0.526-0.607-1.013-0.889-1.462c-0.269-0.453-0.562-0.845-0.805-1.198c-0.24-0.357-0.47-0.654-0.661-0.898
					c-0.377-0.493-0.613-0.755-0.613-0.755s0.514,1.323,1.322,3.248C206.02,263.263,206.23,263.786,206.471,264.332z"/>
				<path fill="#333333" d="M212.321,275.197c0,0,1.418-3.947,6.242-10.77c3.262-4.613,4.705-6.189,5.298-6.729
					c-1.226,0.928-5.217,4.038-7.284,6.729c-2.458,3.204-3.026,4.149-3.026,4.149s-0.852-4.635-2.838-7.756
					c0,0,0.757,1.741,1.135,6.875C212.227,272.833,212.321,275.197,212.321,275.197z"/>
				<path fill="#333333" d="M235.637,309.307c-0.05,0.258-0.159,0.525-0.227,0.799c-0.112,0.27-0.188,0.555-0.311,0.835
					c-0.227,0.567-0.47,1.163-0.766,1.758c-0.281,0.599-0.627,1.185-0.977,1.769c-1.439,2.328-3.222,4.464-4.567,6.049
					c-1.363,1.574-2.333,2.574-2.333,2.574l0.101,0.111c0,0,1.095-0.872,2.618-2.318c1.533-1.432,3.479-3.461,5.173-5.743
					c0.423-0.572,0.831-1.158,1.209-1.759c0.389-0.594,0.721-1.223,0.989-1.863c0.256-0.643,0.448-1.305,0.517-1.969
					c0.089-0.654,0.053-1.311-0.092-1.896c-0.057-0.294-0.199-0.563-0.295-0.815c-0.149-0.232-0.274-0.46-0.427-0.646
					c-0.169-0.169-0.326-0.327-0.471-0.474c-0.168-0.109-0.322-0.211-0.461-0.303c-0.269-0.188-0.529-0.242-0.682-0.313
					c-0.158-0.056-0.243-0.087-0.243-0.087l-0.07,0.132c0,0,0.062,0.062,0.179,0.181c0.104,0.127,0.304,0.258,0.472,0.499
					c0.087,0.112,0.184,0.237,0.288,0.372c0.078,0.145,0.164,0.302,0.254,0.469c0.061,0.172,0.126,0.355,0.194,0.55
					c0.019,0.211,0.078,0.409,0.083,0.634c0,0.226,0.019,0.451-0.028,0.699C235.753,308.791,235.697,309.045,235.637,309.307z"/>
				<path fill="#333333" d="M230.249,330.919c-0.547-0.292-1.227-0.084-1.518,0.464c-0.291,0.547-0.083,1.226,0.463,1.518
					c0.888,0.472,1.533,0.915,2.006,1.319c-0.164-0.071-0.332-0.141-0.511-0.208c-0.821-0.301-1.805-0.471-2.914-0.592
					c-1.083-0.072-2.269-0.103-3.584,0.037c-0.007-0.623-0.143-1.32-0.676-1.835c-0.973-0.94-2.785-0.782-5.242-0.454
					c-1.305,0.174-2.192,0.709-2.638,1.593c-0.551,1.095-0.221,2.369,0.073,3.116c-0.148,0.072-0.294,0.139-0.441,0.213
					c-1.539,0.763-3.101,1.648-4.686,2.634c-0.206,0.13-0.413,0.276-0.619,0.409c-0.374-1.65-1.044-2.739-2.034-3.306
					c-1.941-1.11-4.472,0.085-6.92,1.239l-0.195,0.092c-0.941,0.443-1.576,1.166-1.885,2.146c-0.825,2.612,1.051,6.298,1.471,7.075
					c-1.185,1.047-2.371,2.138-3.549,3.284c-0.301-1.837-0.725-4.157-1.182-5.846c-0.216-0.798-0.712-1.353-1.436-1.606
					c-2.418-0.839-6.972,2.13-9.469,3.975c-1.196,0.884-1.794,1.993-2.073,3.058c-1.136-2.163-2.137-4.425-2.968-6.72
					c-0.776-2.16-1.471-4.347-1.879-6.535c-0.423-2.16-0.565-4.395-0.254-6.247c0.151-0.859,0.374-1.732,0.647-2.51
					c1.356,1.202,4.042,3.062,8.722,4.388c3.614,1.025,5.715,1.243,6.854,1.243c0.743,0,1.076-0.093,1.151-0.118l0.262-0.087
					l1.178-1.948l0.689,1.816l0.625-0.132c0.813-0.171,19.614-4.219,24.804-14.556c0.335-0.232,0.661-0.48,0.957-0.765
					c0.885-0.851,1.574-1.886,1.969-2.965c0.36-0.944,0.514-1.886,0.534-2.784c0.148-0.24,0.309-0.487,0.505-0.725
					c0.177-0.219,0.331-0.466,0.536-0.672c0.203-0.205,0.383-0.438,0.601-0.619c0.22-0.175,0.413-0.385,0.643-0.516l0.322-0.213
					c0.109-0.061,0.22-0.106,0.325-0.16c0.204-0.117,0.418-0.15,0.602-0.215c0.189-0.029,0.36-0.062,0.511-0.054
					c0.151-0.01,0.283,0.022,0.39,0.04c0.109,0.022,0.191,0.053,0.254,0.081c0.048,0.026,0.122,0.059,0.079,0.059
					c-0.038-0.004,0.036,0.028,0.028,0.025c0.782,0.268,1.633-0.148,1.902-0.929c0.269-0.782-0.148-1.633-0.929-1.902
					c0,0-0.064-0.013-0.185-0.037c-0.181-0.039-0.316-0.045-0.535-0.057c-0.206-0.006-0.45,0.006-0.717,0.045
					c-0.264,0.045-0.562,0.1-0.857,0.215c-0.304,0.1-0.598,0.257-0.899,0.424c-0.277,0.195-0.585,0.385-0.828,0.637
					c-0.126,0.121-0.257,0.241-0.378,0.369c-0.109,0.136-0.219,0.271-0.331,0.409c-0.234,0.265-0.389,0.575-0.576,0.859
					c-0.182,0.287-0.303,0.601-0.45,0.889c-0.056,0.109-0.097,0.22-0.139,0.329c-0.09-0.512-0.217-0.998-0.376-1.438
					c-0.115-0.324-0.25-0.621-0.393-0.903c-0.534-1.513-1.443-2.862-2.66-3.814c-0.324-0.255-0.795-0.198-1.05,0.129
					c-0.255,0.325-0.197,0.795,0.128,1.05c0.987,0.771,1.718,1.87,2.16,3.1c0.054,0.272,0.104,0.549,0.134,0.845
					c0.149,1.396-0.027,3.058-0.777,4.475c-0.36,0.714-0.882,1.338-1.491,1.876c-0.629,0.517-1.364,0.939-2.185,1.23
					c-0.198,0.074-0.383,0.125-0.574,0.194l-0.697,0.173c-0.218,0.033-0.435,0.071-0.65,0.114l-0.64,0.07
					c-0.844,0.048-1.643-0.041-2.38-0.282c-1.478-0.473-2.687-1.611-3.553-2.771c-0.184-0.243-0.349-0.484-0.508-0.723
					c-0.921-1.943-1.188-3.789-1.192-3.821c-0.056-0.408-0.432-0.703-0.842-0.641c-0.409,0.056-0.696,0.431-0.641,0.84
					c0.018,0.139,0.309,2.17,1.35,4.329c0.096,0.283,0.201,0.575,0.329,0.876c0.017,0.038,0.038,0.078,0.055,0.117
					c-0.698-0.004-5.975,0.01-12.403,1.42c-6.904,1.512-9.835,3.215-9.835,3.215s4.161-1.893,13.996-2.316
					c2.216-0.098,4.126-0.121,5.778-0.104c-0.193,0.216-0.375,0.47-0.521,0.783c-0.318,0.649-0.442,1.594-0.181,2.361
					c0.042,0.197,0.107,0.369,0.187,0.534c-2.294,1.124-6.077,2.917-8.652,3.808c-0.979,0.332-1.987,0.627-3.021,0.836
					c-1.031,0.207-2.103,0.328-3.161,0.191c-2.139-0.26-4.188-1.191-6.303-2.007c-1.062-0.405-2.153-0.802-3.321-0.993
					c-1.15-0.195-2.459-0.105-3.501,0.588c-1.044,0.675-1.729,1.739-2.235,2.818c-0.501,1.097-0.854,2.247-1.118,3.422
					c-0.303,1.475-0.362,2.975-0.273,4.47c-0.011,0.077-0.022,0.147-0.033,0.226c-0.063,0.62-0.107,1.293-0.14,2.001
					c-0.002,0.71-0.036,1.46-0.013,2.235c0.026,0.774,0.039,1.574,0.081,2.389c0.052,0.811,0.105,1.635,0.158,2.459
					c0.067,0.824,0.166,1.644,0.246,2.453c0.084,0.809,0.161,1.604,0.268,2.371c0.203,1.532,0.362,2.971,0.551,4.193
					c0.362,2.449,0.603,4.08,0.603,4.08l0.148-0.021c-0.001,0,0.188-1.697,0.142-4.18c-0.02-1.242-0.036-2.686-0.139-4.224
					c-0.068-0.767-0.069-1.562-0.143-2.364c-0.06-0.8-0.139-1.617-0.185-2.43c-0.053-0.598-0.104-1.193-0.156-1.785
					c0.238,0.812,0.49,1.619,0.767,2.418c1.623,4.582,3.767,8.991,6.529,12.92c0.7,0.977,1.446,1.918,2.273,2.787
					c0.834,0.854,1.725,1.694,2.881,2.186c0.564,0.237,1.285,0.362,1.916,0.056c0.639-0.276,0.981-0.929,1.245-1.392
					c0.57-0.986,1.227-1.9,1.912-2.8c2.775-3.558,5.878-6.67,8.924-9.479c3.059-2.802,6.114-5.275,9.08-7.35
					c2.966-2.062,5.849-3.75,8.588-4.78c1.359-0.521,2.711-0.8,3.962-1.019c1.241-0.23,2.41-0.281,3.454-0.291
					c1.045,0.039,1.977,0.143,2.759,0.354c0.653,0.176,1.201,0.391,1.646,0.617c0.171,0.279,0.249,0.512,0.281,0.688
					c0.115,0.629-0.237,1.061-0.271,1.098c-0.415,0.449-0.394,1.148,0.05,1.571c0.217,0.209,0.497,0.312,0.775,0.312
					c0.295,0,0.591-0.117,0.812-0.348c0.116-0.122,1.131-1.241,0.855-2.958C234.385,333.922,232.9,332.33,230.249,330.919z
					 M208.867,317.431c0.103-0.186,0.225-0.362,0.35-0.529c0.605,0.022,1.174,0.05,1.68,0.083c0.646,0.733,1.478,1.432,2.502,1.896
					c0.39,0.182,0.805,0.318,1.229,0.435c-0.57,0.201-1.172,0.408-1.783,0.586c-0.94,0.269-1.937,0.445-2.617,0.322
					c-0.341-0.047-0.598-0.164-0.835-0.334c-0.04-0.045-0.066-0.039-0.141-0.104l-0.27-0.306l-0.034-0.051l-0.076-0.105
					c-0.057-0.071-0.116-0.137-0.133-0.197c-0.175-0.262-0.204-0.455-0.203-0.746C208.535,318.094,208.685,317.748,208.867,317.431z
					 M179.688,324.839c0.439-0.349,1.048-0.484,1.957-0.399c0.891,0.077,1.918,0.365,2.962,0.702
					c1.048,0.335,2.128,0.722,3.256,1.052c1.125,0.335,2.311,0.609,3.559,0.664c2.591,0.107,4.754-0.586,6.768-1.299
					c2.651-0.99,6.465-2.914,8.751-4.107l0.041,0.064c0.113,0.15,0.302,0.35,0.461,0.516c0.615,0.618,1.474,1.008,2.295,1.141
					c0.825,0.127,1.595,0.053,2.275-0.117c0.684-0.161,1.29-0.418,1.837-0.697c1.09-0.57,1.953-1.262,2.623-1.914
					c0.304-0.299,0.563-0.586,0.791-0.855l0.513-0.029l0.876-0.125l0.813-0.184c0.184-0.057,0.367-0.114,0.55-0.172
					c-5.474,7.391-18.927,10.977-21.98,11.709l-1.322-3.479l-2.443,4.043c-0.638,0.055-2.589,0.051-6.901-1.171
					c-4.894-1.387-7.436-3.384-8.474-4.39C179.145,325.377,179.415,325.038,179.688,324.839z M189.072,358.984
					c0,0.003,0.007-0.008,0.011-0.013C189.072,358.987,189.064,359.008,189.072,358.984z M191.477,355.48
					c-0.378,0.473-0.744,0.957-1.105,1.475c-0.178,0.249-0.36,0.512-0.553,0.814l-0.281,0.438l-0.13,0.221
					c-0.135-0.09-0.284-0.197-0.434-0.322c-0.33-0.271-0.676-0.607-1.017-0.974c-0.685-0.731-1.349-1.585-1.978-2.482
					c-0.689-0.977-1.348-2.001-1.976-3.057c-0.107-1.108,0.002-2.983,1.651-4.204c3.62-2.674,6.869-4.182,8.088-3.764
					c0.178,0.062,0.374,0.18,0.483,0.584c0.528,1.951,1.023,4.872,1.317,6.76C194.165,352.375,192.803,353.867,191.477,355.48z
					 M201.569,345.386c-0.661-1.298-1.739-3.968-1.211-5.634c0.182-0.572,0.539-0.977,1.095-1.24l0.196-0.092
					c2.101-0.992,4.273-2.018,5.538-1.293c0.696,0.398,1.172,1.377,1.425,2.898C206.29,341.605,203.94,343.412,201.569,345.386z
					 M222.083,333.725c-0.769,0.131-1.491,0.305-2.251,0.523c-0.914,0.264-1.833,0.607-2.756,1.004
					c-0.198-0.539-0.368-1.295-0.101-1.82c0.209-0.413,0.714-0.677,1.499-0.781c1.681-0.223,3.516-0.423,4.003,0.048
					c0.16,0.153,0.229,0.474,0.213,0.938C222.489,333.668,222.293,333.697,222.083,333.725z"/>
				<path fill="#333333" d="M238.481,334.939c-0.101-0.332-0.252-0.694-0.44-1.082c-0.197-0.379-0.412-0.8-0.708-1.196
					c-0.146-0.198-0.295-0.407-0.449-0.616c-0.164-0.203-0.354-0.391-0.537-0.59c-0.357-0.414-0.804-0.755-1.235-1.131
					c-0.466-0.324-0.939-0.665-1.445-0.941c-0.521-0.242-1.015-0.557-1.556-0.725c-0.265-0.098-0.529-0.189-0.792-0.275
					c-0.259-0.092-0.52-0.172-0.782-0.224c-0.519-0.121-1.023-0.226-1.501-0.306c-0.484-0.054-0.941-0.086-1.362-0.113
					c-0.209-0.012-0.409-0.031-0.601-0.035c-0.192,0.01-0.374,0.018-0.545,0.027c-0.341,0.012-0.638,0.04-0.881,0.061
					c-0.487,0.043-0.763,0.08-0.763,0.08s0.271,0.088,0.739,0.217c0.234,0.06,0.518,0.139,0.841,0.212
					c0.325,0.068,0.687,0.165,1.075,0.287c0.388,0.118,0.807,0.243,1.251,0.354c0.436,0.148,0.883,0.328,1.355,0.477
					c0.48,0.131,0.919,0.401,1.403,0.578c0.485,0.179,0.919,0.469,1.389,0.692c0.46,0.239,0.88,0.542,1.318,0.804
					c0.39,0.324,0.84,0.568,1.184,0.912c0.184,0.159,0.365,0.316,0.542,0.471c0.167,0.167,0.329,0.328,0.488,0.486
					c0.315,0.32,0.589,0.648,0.848,0.951c0.24,0.315,0.473,0.604,0.651,0.877c0.192,0.268,0.335,0.516,0.466,0.717
					c0.244,0.41,0.366,0.666,0.366,0.666s0.001-0.281-0.088-0.77C238.654,335.566,238.604,335.264,238.481,334.939z"/>
				<path fill="#333333" d="M176.547,314.797c0.548-0.024,1.1-0.115,1.643-0.038c0.27,0.033,0.544,0.011,0.811,0.052
					c0.269,0.039,0.534,0.076,0.795,0.114c0.269,0.016,0.51,0.132,0.769,0.169c0.251,0.057,0.51,0.092,0.745,0.182
					c0.476,0.153,0.943,0.284,1.364,0.451c0.429,0.146,0.805,0.33,1.165,0.462c0.332,0.171,0.657,0.286,0.899,0.417
					c0.253,0.123,0.452,0.219,0.588,0.285c0.137,0.065,0.209,0.111,0.209,0.111l0.014,0.009c0.027,0.017,0.063,0.015,0.089-0.009
					c0.03-0.026,0.032-0.074,0.005-0.104c0,0-0.213-0.241-0.639-0.602c-0.204-0.191-0.479-0.391-0.782-0.633
					c-0.325-0.212-0.668-0.488-1.09-0.717c-0.406-0.256-0.871-0.486-1.37-0.713c-0.243-0.13-0.516-0.208-0.786-0.309
					c-0.274-0.086-0.542-0.221-0.839-0.273c-0.292-0.068-0.589-0.137-0.89-0.208c-0.3-0.076-0.617-0.076-0.93-0.118
					c-0.626-0.104-1.268-0.035-1.911-0.019c-0.637,0.064-1.264,0.225-1.878,0.354c-0.588,0.225-1.186,0.404-1.729,0.651
					c-0.528,0.282-1.039,0.554-1.522,0.813c-0.454,0.306-0.866,0.618-1.256,0.895c-0.194,0.139-0.379,0.275-0.556,0.4
					c-0.16,0.148-0.312,0.286-0.455,0.417c-0.285,0.263-0.533,0.489-0.738,0.679c-0.408,0.377-0.642,0.592-0.642,0.592
					c-0.021,0.021-0.029,0.055-0.017,0.082c0.016,0.037,0.059,0.055,0.095,0.037l0.029-0.013c0,0,0.31-0.14,0.813-0.399
					c0.25-0.135,0.555-0.287,0.879-0.485c0.166-0.093,0.34-0.194,0.525-0.301c0.197-0.085,0.393-0.188,0.603-0.286
					c0.418-0.193,0.857-0.416,1.308-0.651c0.48-0.181,0.983-0.354,1.474-0.582c0.506-0.187,1.056-0.27,1.575-0.464
					C175.452,314.959,175.999,314.834,176.547,314.797z"/>
				<path fill="#333333" d="M222.142,342.74l-0.025-0.006c0,0-0.239-0.059-0.669-0.115c-0.214-0.022-0.482-0.067-0.783-0.067
					c-0.298,0.01-0.639,0.021-1.008,0.065c-0.377,0.021-0.76,0.122-1.172,0.225c-0.417,0.094-0.839,0.234-1.262,0.418
					c-0.431,0.168-0.862,0.363-1.277,0.606c-0.427,0.226-0.817,0.513-1.231,0.771c-0.386,0.294-0.753,0.606-1.118,0.912
					c-0.356,0.312-0.675,0.659-0.976,0.991c-0.309,0.324-0.572,0.675-0.812,1.012c-0.253,0.322-0.452,0.664-0.634,0.977
					c-0.736,1.244-0.933,2.252-0.933,2.252l-0.006,0.031c-0.005,0.025,0.005,0.053,0.027,0.07c0.033,0.023,0.077,0.017,0.1-0.016
					c0,0,0.539-0.732,1.477-1.727c0.469-0.496,1.029-1.061,1.668-1.627c0.632-0.569,1.345-1.138,2.082-1.665
					c0.375-0.253,0.73-0.54,1.116-0.765c0.381-0.231,0.747-0.477,1.129-0.662c0.376-0.199,0.735-0.4,1.099-0.543
					c0.361-0.146,0.689-0.321,1.017-0.412c0.323-0.105,0.619-0.202,0.882-0.288c0.267-0.073,0.504-0.116,0.697-0.162
					c0.388-0.087,0.609-0.136,0.609-0.136c0.026-0.006,0.048-0.025,0.055-0.053C222.204,342.789,222.181,342.75,222.142,342.74z"/>
				
					<ellipse transform="matrix(0.4607 0.8876 -0.8876 0.4607 339.0555 -16.356)" fill="#333333" cx="182.986" cy="270.815" rx="1.546" ry="1.341"/>
				
					<ellipse transform="matrix(-0.4607 -0.8875 0.8875 -0.4607 25.7349 564.0051)" fill="#333333" cx="184.211" cy="274.184" rx="0.986" ry="0.854"/>
				
					<ellipse transform="matrix(0.3591 0.9333 -0.9333 0.3591 375.3062 -1.818)" fill="#333333" cx="188.977" cy="272.351" rx="2.293" ry="1.876"/>
			</g>
		</g>
		<path fill="#333333" d="M100.129,267.867c0.322,0.307,0.617,0.651,0.969,0.938c0.347,0.292,0.698,0.587,1.052,0.884
			c0.354,0.297,0.712,0.597,1.071,0.9c0.386,0.267,0.774,0.537,1.165,0.81c0.782,0.541,1.557,1.119,2.421,1.565
			c0.423,0.24,0.847,0.478,1.273,0.72c0.427,0.235,0.843,0.499,1.3,0.684c0.896,0.402,1.795,0.807,2.695,1.211
			c0.913,0.37,1.862,0.647,2.788,0.974l1.394,0.472c0.47,0.13,0.937,0.259,1.404,0.388c1.872,0.498,3.734,0.938,5.56,1.225
			c1.825,0.286,3.614,0.448,5.314,0.384c1.687-0.085,3.325-0.37,4.627-1.133c0.647-0.372,1.203-0.855,1.605-1.412
			c0.402-0.558,0.642-1.178,0.771-1.77c0.257-1.196,0.112-2.273-0.081-3.113c-0.199-0.844-0.461-1.478-0.657-1.897
			c-0.194-0.423-0.322-0.635-0.322-0.635l-0.13,0.073c0,0,0.105,0.224,0.253,0.654c0.154,0.428,0.329,1.076,0.464,1.896
			c0.125,0.816,0.172,1.847-0.146,2.884c-0.3,1.042-1.053,1.984-2.206,2.541c-0.57,0.288-1.231,0.489-1.95,0.597
			c-0.71,0.131-1.481,0.175-2.273,0.187c-1.595-0.008-3.3-0.24-5.059-0.554c-1.77-0.317-3.549-0.812-5.385-1.31
			c-0.465-0.134-0.931-0.268-1.399-0.402l-1.327-0.464c-0.892-0.328-1.809-0.604-2.687-0.971c-0.87-0.381-1.741-0.763-2.609-1.143
			c-0.444-0.172-0.844-0.42-1.258-0.645c-0.411-0.226-0.821-0.455-1.229-0.681c-0.837-0.423-1.587-0.962-2.354-1.46
			c-0.382-0.25-0.764-0.5-1.142-0.748c-0.352-0.28-0.702-0.561-1.05-0.838c-0.347-0.275-0.692-0.551-1.035-0.822
			c-0.345-0.271-0.637-0.59-0.96-0.871c-0.624-0.586-1.27-1.131-1.798-1.756c-1.124-1.188-2.101-2.398-2.944-3.565
			c-0.829-1.174-1.536-2.296-2.119-3.322c-0.575-1.03-1.015-1.964-1.35-2.748c-0.321-0.788-0.579-1.41-0.726-1.846
			c-0.146-0.431-0.213-0.671-0.213-0.671l-0.147,0.026c0,0,0.155,0.985,0.704,2.619c0.548,1.632,1.503,3.925,3.089,6.425
			c0.793,1.246,1.732,2.552,2.851,3.825C98.865,266.641,99.506,267.232,100.129,267.867z"/>
		<path fill="#333333" d="M105.105,258.875c-0.124,0.733-0.101,1.508,0.071,2.268c0.169,0.759,0.43,1.521,0.816,2.23
			c0.108,0.184,0.175,0.336,0.32,0.547c0.111,0.161,0.196,0.308,0.329,0.479l0.409,0.508l0.417,0.449
			c0.582,0.569,1.209,1.07,1.855,1.522c0.642,0.457,1.336,0.811,2.023,1.125c0.69,0.312,1.402,0.539,2.152,0.613
			c0.187,0.018,0.386,0.01,0.571,0.013c0.2-0.028,0.4-0.05,0.595-0.119l0.292-0.141l0.071-0.036l0.017-0.008l0.009-0.005
			l0.047-0.031l0.021-0.018l0.084-0.076c0.043-0.034,0.162-0.17,0.225-0.257c0.063-0.095,0.103-0.183,0.146-0.273
			c0.259-0.744,0.065-1.306-0.056-1.773c-0.139-0.469-0.318-0.846-0.467-1.151c-0.308-0.604-0.524-0.924-0.524-0.924
			s0.101,0.375,0.243,1.024c0.069,0.325,0.142,0.72,0.186,1.161c0.038,0.428,0.036,0.971-0.16,1.298
			c-0.135,0.25-0.595,0.342-1.144,0.21c-0.55-0.117-1.146-0.385-1.739-0.695c-1.18-0.639-2.389-1.5-3.39-2.511l-0.369-0.381
			l-0.316-0.371c-0.106-0.124-0.218-0.303-0.326-0.451c-0.075-0.096-0.172-0.285-0.258-0.421c-0.335-0.603-0.628-1.222-0.806-1.852
			c-0.176-0.625-0.272-1.247-0.241-1.816c0.026-0.562,0.192-1.092,0.456-1.42c0.039-0.077,0.153-0.173,0.26-0.264
			c0.051-0.061,0.175-0.111,0.255-0.174c0.188-0.105,0.393-0.173,0.596-0.209c0.409-0.059,0.801-0.032,1.117,0.036
			c0.312,0.07,0.567,0.137,0.735,0.207c0.169,0.062,0.259,0.096,0.259,0.096s-0.077-0.059-0.221-0.167
			c-0.14-0.109-0.362-0.265-0.678-0.416c-0.313-0.15-0.725-0.3-1.245-0.323c-0.26-0.007-0.544,0.021-0.839,0.112
			c-0.146,0.064-0.286,0.093-0.447,0.205c-0.115,0.071-0.231,0.135-0.379,0.276C105.527,257.455,105.224,258.141,105.105,258.875z"
			/>
		<g>
			<path fill="#333333" d="M199.874,339.281c1.309-1.497,6.842-3.953,8.416-2.244c0.115,0.124,0.216,0.251,0.312,0.381
				c0.071-0.385,0.163-0.838,0.284-1.389c1.077-4.932,3.836-9.186,3.836-9.186s0,0-0.749,2.176
				c-0.748,2.179-1.136,5.773-1.136,5.773s0.981-2.136,2.419-5.602c0.939-2.262,3.083-4.299,4.529-5.99
				c-6.152,2.756-19.959,8.6-19.959,8.6l-1.62-2.781l-2.537,3.119c0,0-0.829,0.036-7.997-2.496
				c-7.168-2.533-6.767-3.852-6.767-3.852s-2.15,1.396-2.898,9.127c-0.466,4.812,3.081,11.656,6.516,16.919
				c0.247-0.927,1.782-5.942,6.504-7.693c5.209-1.933,6.172-1.029,6.452,2.151c0.28,3.18,0.468,4.602,0.468,4.602l4.862-4.695
				C200.808,346.201,198.564,340.777,199.874,339.281z"/>
			<path fill="#333333" d="M219.096,322.047c-0.002,0.051-0.007,0.105-0.011,0.158c0.341-0.268,0.544-0.393,0.544-0.393
				C219.469,321.883,219.288,321.961,219.096,322.047z"/>
			<path fill="#333333" d="M208.022,342.2c-0.864,0.768-2.05,1.823-3.399,3.029c1.314-1.08,2.554-2.08,3.575-2.901
				C208.129,342.293,208.072,342.25,208.022,342.2z"/>
		</g>
		<ellipse fill="#999999" cx="160.844" cy="245.519" rx="8.258" ry="3.997"/>
		<ellipse fill="#999999" cx="213.605" cy="226.235" rx="8.257" ry="3.996"/>
		<path fill="#333333" d="M154.052,304.869c0,0-2.296,1.51-5.869,3.507c-0.892,0.502-1.857,1.048-2.893,1.593
			c-1.033,0.553-2.116,1.146-3.257,1.719c-1.14,0.576-2.303,1.2-3.51,1.781c-1.204,0.587-2.428,1.186-3.65,1.782
			c-1.238,0.572-2.444,1.147-3.662,1.731c-1.204,0.59-2.417,1.111-3.574,1.646c-2.326,1.053-4.517,1.995-6.414,2.764
			c-1.868,0.811-3.444,1.454-4.559,1.891c-1.115,0.436-1.763,0.666-1.763,0.666s0.559-0.398,1.557-1.062
			c1-0.66,2.437-1.6,4.201-2.653c1.77-1.03,3.855-2.187,6.113-3.381c1.133-0.587,2.288-1.228,3.49-1.817
			c1.188-0.6,2.425-1.223,3.65-1.811c1.235-0.574,2.468-1.148,3.683-1.713c1.212-0.571,2.429-1.082,3.594-1.605
			c1.163-0.524,2.307-0.992,3.386-1.445c1.077-0.459,2.107-0.867,3.059-1.243C151.434,305.701,154.052,304.869,154.052,304.869z"/>
		<path fill="#333333" d="M257.563,234.436l-0.031-1.693l-0.007-0.003c0.005-0.144,0.007-0.225,0.007-0.225l-15.628-6.66
			c-7.111-3.212-16.159-7.392-25.33-11.883l0.598-2.324l0.338-1.318l-0.092-0.083l0.053-0.178l-0.973-0.875l-0.671-0.603
			l0.319-0.579c0.978,0.24,1.927,0.366,2.806,0.366c2.321,0,4.144-0.862,5.132-2.426c0.565-0.893,0.808-1.916,0.734-3.014
			c-0.033-1.158-0.412-2.403-1.159-3.68c-1.131-1.932-3.024-3.798-5.328-5.256c-2.612-1.65-5.498-2.599-7.918-2.599
			c-2.324,0-4.149,0.863-5.14,2.428c-0.511,0.808-0.748,1.717-0.74,2.685c-0.052,1.523,0.54,3.204,1.737,4.879l-0.255,0.614
			l-3.043,5.137c-21.474-10.79-43.82-20.844-44.06-20.951l-1.054-0.474l-1.061,0.461c-0.731,0.317-73.357,31.874-96.888,45.001
			l-0.843,0.471l-0.336,0.904c-0.322,0.869-1.847,6.941-0.16,41.17c1.719,34.886,0.017,70.971,0,71.331l-0.084,1.752l1.586,0.744
			c0.289,0.136,28.979,13.596,49.99,22.246c20.845,8.582,46.322,21.718,46.578,21.849l1.283,0.664l1.245-0.732
			c0.292-0.171,29.416-17.24,54.401-27.773c25.317-10.673,42.557-21.013,42.728-21.117l1.257-0.758l0.01-1.468
			C257.568,339.682,258.057,261.832,257.563,234.436z M211.762,200.891l0.082-0.137l-1.134-1.229
			c-1.249-1.352-1.63-2.399-1.68-2.936c0.007-0.059,0.021-0.105,0.039-0.133c0.083-0.13,0.521-0.338,1.346-0.338
			c1.57,0,3.634,0.712,5.52,1.906c1.684,1.063,3.089,2.423,3.854,3.731c0.371,0.631,0.511,1.115,0.542,1.426
			c-0.008,0.065-0.02,0.118-0.038,0.146c-0.082,0.13-0.517,0.336-1.338,0.336c-0.89,0-1.955-0.229-3.076-0.663l-1.828-0.707
			l-0.946,1.715l-2.149,3.9l-0.861,1.56l0.083,0.075l-0.083,0.151l1.326,1.193l1.021,0.918l-1.543,6.011l-0.948-4.517l-0.141-0.671
			l-0.491-0.477l-2.597-2.521l4.273-7.211l0.852-1.439L211.762,200.891z M96.734,269.625c-0.417-0.331-0.963-0.679-1.487-1.206
			c-0.54-0.508-1.161-1.065-1.813-1.696c-0.613-0.672-1.277-1.4-1.98-2.169c-0.649-0.814-1.333-1.673-2.041-2.562
			c-0.651-0.933-1.349-1.875-2.011-2.867c-0.631-1.013-1.323-2.007-1.922-3.061c-0.61-1.048-1.235-2.084-1.788-3.143
			c-0.282-0.524-0.563-1.044-0.84-1.558c-0.262-0.521-0.521-1.038-0.777-1.544c-1.023-2.028-1.891-3.962-2.619-5.625
			c-0.379-0.882-0.71-1.682-0.997-2.393c3.479,1.336,7.316,2.811,11.357,4.364c3.876,1.499,7.939,3.072,12.044,4.684
			c-0.461,0.225-0.922,0.545-1.31,0.992c-0.525,0.59-0.878,1.382-1.032,2.22c-0.164,0.841-0.141,1.72-0.038,2.608
			c0.238,1.783,0.8,3.576,1.658,5.41c0.109,0.217,0.219,0.435,0.33,0.656c0.127,0.223,0.273,0.448,0.412,0.674
			c0.275,0.461,0.598,0.873,0.927,1.285c0.65,0.833,1.407,1.595,2.204,2.326c1.618,1.441,3.459,2.686,5.4,3.813
			c1.954,1.1,4.007,2.126,6.192,2.851c1.084,0.386,2.21,0.663,3.349,0.892c1.148,0.177,2.316,0.273,3.503,0.187
			c1.172-0.098,2.423-0.385,3.457-1.236c0.493-0.435,0.937-0.99,1.139-1.626l0.157-0.473c0.038-0.159,0.043-0.317,0.064-0.477
			l0.048-0.476c0.008-0.156-0.018-0.304-0.025-0.458c-0.019-0.62-0.18-1.173-0.326-1.732c-0.206-0.518-0.382-1.056-0.635-1.529
			c-0.123-0.239-0.246-0.475-0.368-0.711c-0.066-0.125-0.112-0.222-0.195-0.366l-0.196-0.321c-0.266-0.424-0.528-0.841-0.787-1.251
			c-0.503-0.825-1.105-1.621-1.639-2.383c-0.589-0.727-1.125-1.448-1.715-2.087c-0.294-0.336-0.592-0.647-0.892-0.951
			c0.524,0.212,1.059,0.429,1.576,0.638c0.295,0.122,0.585,0.237,0.879,0.357c4.045,2,7.874,3.89,11.453,5.583
			c2.246,1.061,4.381,2.03,6.372,2.906c0.047,0.14,0.102,0.303,0.169,0.52c0.178,0.576,0.417,1.414,0.622,2.433
			c0.202,1.021,0.391,2.227,0.416,3.521c0.033,1.292-0.092,2.679-0.54,3.971c-0.232,0.635-0.517,1.263-0.923,1.796
			c-0.179,0.286-0.423,0.512-0.638,0.762c-0.244,0.218-0.481,0.448-0.745,0.629c-0.525,0.371-1.081,0.677-1.646,0.876
			c-0.556,0.229-1.117,0.346-1.632,0.46c-0.523,0.075-1.002,0.166-1.436,0.173c-0.43,0.025-0.808,0.058-1.118,0.039
			c-0.624-0.011-0.979-0.017-0.979-0.017s0.355,0.03,0.976,0.082c0.312,0.038,0.69,0.032,1.126,0.035
			c0.438,0.021,0.927-0.039,1.466-0.079c0.532-0.083,1.116-0.165,1.71-0.363c0.601-0.171,1.208-0.452,1.797-0.812
			c0.296-0.177,0.568-0.406,0.849-0.626c0.251-0.254,0.534-0.49,0.75-0.785c0.482-0.557,0.84-1.221,1.14-1.899
			c0.58-1.374,0.81-2.857,0.864-4.229c0.064-1.377-0.052-2.656-0.193-3.74c-0.104-0.783-0.233-1.459-0.351-2.011
			c6.389,2.759,11.027,4.454,12.542,4.992c-0.056,1.668-0.234,6.962-0.401,12.785l-0.066-0.075
			c-0.053,0.044-5.273,4.569-12.489,5.582c-2.146-0.941-4.073-1.8-5.86-2.603c0.243-0.055,0.497-0.112,0.767-0.18
			c0.451-0.127,0.942-0.246,1.446-0.427c0.512-0.157,1.038-0.362,1.577-0.585c0.545-0.202,1.074-0.502,1.626-0.757
			c0.525-0.315,1.079-0.597,1.584-0.96c0.502-0.367,1.022-0.702,1.463-1.127c0.229-0.202,0.455-0.401,0.678-0.598
			c0.209-0.212,0.399-0.438,0.596-0.65c0.192-0.216,0.38-0.428,0.566-0.635c0.158-0.229,0.313-0.452,0.464-0.668
			c0.15-0.216,0.296-0.427,0.438-0.63c0.134-0.208,0.229-0.43,0.339-0.631c0.205-0.412,0.412-0.777,0.56-1.116
			c0.123-0.35,0.231-0.654,0.319-0.907c0.176-0.5,0.277-0.785,0.277-0.785s-0.123,0.277-0.337,0.763
			c-0.106,0.242-0.235,0.534-0.384,0.871c-0.171,0.325-0.405,0.67-0.637,1.057c-0.122,0.188-0.23,0.396-0.377,0.588
			c-0.154,0.188-0.312,0.382-0.476,0.581c-0.162,0.2-0.329,0.405-0.499,0.612c-0.194,0.186-0.393,0.378-0.594,0.571
			c-0.205,0.191-0.403,0.392-0.62,0.581c-0.229,0.173-0.459,0.346-0.694,0.524c-0.45,0.373-0.977,0.654-1.479,0.965
			c-0.506,0.307-1.058,0.534-1.575,0.795c-0.549,0.204-1.065,0.448-1.6,0.6c-0.526,0.173-1.038,0.327-1.535,0.438
			c-0.488,0.133-0.962,0.21-1.396,0.298c-0.872,0.146-1.602,0.229-2.11,0.259c-0.257,0.021-0.447,0.026-0.576,0.031
			c-0.137,0.002-0.21,0.003-0.21,0.003l0.002,0.038c-1.137-0.517-2.228-1.013-3.29-1.497c-8.294-3.779-14.287-6.511-28.856-11.947
			c-4.655-1.737-9.037-3.4-13.085-4.954c-2.564-2.129-16.471-14.398-19.237-31.386c1.489,0.563,3.114,1.18,4.868,1.846
			c0.466,0.179,0.944,0.363,1.427,0.548c0.411,0.948,0.959,2.177,1.641,3.605c0.801,1.65,1.751,3.569,2.862,5.575
			c0.277,0.501,0.559,1.01,0.844,1.526c0.3,0.509,0.603,1.024,0.909,1.54c0.597,1.045,1.269,2.069,1.924,3.099
			c0.644,1.038,1.381,2.019,2.056,3.012c0.704,0.975,1.446,1.9,2.137,2.812c0.748,0.868,1.47,1.706,2.155,2.503
			c0.737,0.746,1.434,1.452,2.077,2.104c0.68,0.613,1.328,1.148,1.888,1.636c0.543,0.507,1.108,0.838,1.538,1.152
			c0.874,0.609,1.372,0.957,1.372,0.957S97.583,270.266,96.734,269.625z M102.954,251.278c1.18,0.464,2.361,0.931,3.544,1.399
			c2.835,1.119,5.669,2.238,8.46,3.337c1.291,0.525,2.57,1.042,3.838,1.556c0.853,0.839,1.757,1.789,2.62,2.922
			c0.531,0.639,1.016,1.366,1.544,2.085c0.473,0.769,1.016,1.483,1.5,2.339c0.247,0.418,0.498,0.842,0.751,1.272l0.195,0.322
			l0.158,0.301l0.335,0.639c0.23,0.427,0.373,0.88,0.557,1.324c0.108,0.452,0.278,0.907,0.294,1.353
			c0.094,0.9-0.13,1.726-0.775,2.302c-0.638,0.589-1.641,0.889-2.664,1.023c-2.075,0.26-4.316-0.038-6.477-0.557
			c-2.167-0.529-4.278-1.359-6.197-2.46c-1.919-1.094-3.666-2.437-5.062-3.99c-0.695-0.775-1.346-1.565-1.879-2.399
			c-0.275-0.415-0.533-0.826-0.738-1.242c-0.113-0.205-0.226-0.41-0.337-0.612c-0.099-0.226-0.198-0.45-0.295-0.673
			c-0.733-1.71-1.344-3.446-1.586-5.025c-0.282-1.578-0.137-3.071,0.584-4.023C101.763,251.89,102.352,251.52,102.954,251.278z
			 M127.832,293.015c-0.056-0.773-0.088-1.217-0.088-1.217s0.009,0.443,0.025,1.219c-0.011,0.388,0.061,0.858-0.019,1.394
			c-0.052,0.536-0.111,1.142-0.174,1.8c-0.126,0.65-0.265,1.354-0.411,2.096c-0.179,0.736-0.417,1.501-0.635,2.296
			c-0.271,0.78-0.559,1.584-0.864,2.395c-0.35,0.795-0.664,1.616-1.052,2.408c-0.388,0.789-0.753,1.59-1.18,2.346
			c-0.402,0.768-0.818,1.512-1.245,2.217c-0.831,1.426-1.684,2.709-2.422,3.801c-1.179,1.702-2.097,2.871-2.447,3.305l-6.336,2.697
			c8.787-13.271,10.826-29.515,11.107-32.185l3.404-1.432c0.134,0.053,0.272,0.106,0.406,0.158c1.564,0.623,3.091,1.239,4.582,1.85
			c0.152,0.069,0.296,0.134,0.449,0.205c2.346,1.067,4.818,2.195,7.664,3.464c-1.189,10.502-7.318,17.752-9.543,20.062
			c-3.026,1.355-6.124,2.732-9.197,4.092c0.296-0.453,0.623-0.965,0.969-1.529c0.694-1.149,1.493-2.498,2.259-3.992
			c0.395-0.737,0.778-1.516,1.146-2.316c0.391-0.788,0.72-1.623,1.072-2.443c0.35-0.822,0.625-1.675,0.937-2.497
			c0.267-0.839,0.515-1.669,0.746-2.472c0.18-0.82,0.38-1.604,0.522-2.358c0.107-0.759,0.208-1.478,0.302-2.139
			c0.029-0.668,0.057-1.281,0.081-1.822C127.938,293.876,127.842,293.403,127.832,293.015z M140.743,292.788
			c2.266,1.001,4.779,2.097,7.637,3.322c-2.124,3.736-6.886,8.891-9.01,11.119c-1.801,0.825-3.685,1.681-5.625,2.557
			C136.225,306.759,139.661,301.199,140.743,292.788z M150.454,296.994c1.535,0.653,3.163,1.339,4.904,2.069
			c-0.002,0.141-0.004,0.275-0.006,0.413c-2.049,1.188-6.225,3.225-11.543,5.704C145.571,303.449,148.667,300.249,150.454,296.994z
			 M145.522,293.248c4.793-1.143,8.43-3.513,10.078-4.745c-0.084,3.078-0.163,6.203-0.214,8.949
			C151.628,295.876,148.385,294.491,145.522,293.248z M84.164,268c-4.777-1.856-8.954-3.508-12.412-4.893l0.036-0.015
			c-0.069-0.173-6.404-15.934-7.57-26.709c1.06,0.402,2.352,0.892,3.851,1.462C70.264,253.191,79.747,263.811,84.164,268z
			 M63.028,247.339c0.001-1.64,0.016-3.084,0.042-4.353c1.656,7.485,4.482,15.329,5.854,18.935
			c-2.594-1.095-4.553-1.932-5.683-2.417C63.09,254.585,63.03,250.585,63.028,247.339z M63.565,268.159l51.335,19.362l-51.435-21.75
			c-0.02-0.493-0.04-0.989-0.058-1.466c2.599,0.974,6.761,2.521,11.94,4.405c2.244,0.805,4.673,1.678,7.244,2.602
			c2.577,0.904,5.295,1.859,8.107,2.843c2.813,0.981,5.742,1.944,8.706,2.948c2.977,0.955,6.003,1.925,9.027,2.895
			c3.038,0.965,5.994,1.97,8.921,3.054c2.192,0.794,4.33,1.615,6.433,2.437l-11.814,6.355l9.33-3.923
			c-0.424,3.669-2.729,19.65-11.594,32.396l-9.746,4.148c0.438-0.504,0.9-1.048,1.391-1.662c0.616-0.734,1.227-1.576,1.891-2.449
			c0.638-0.892,1.312-1.832,1.967-2.831c0.642-1.01,1.33-2.036,1.939-3.132c0.313-0.543,0.631-1.09,0.948-1.639
			c0.292-0.562,0.585-1.128,0.879-1.693c0.612-1.116,1.113-2.288,1.638-3.424c0.549-1.125,0.94-2.298,1.392-3.398
			c0.465-1.098,0.764-2.215,1.117-3.247c0.163-0.519,0.346-1.017,0.478-1.514c0.127-0.497,0.25-0.977,0.37-1.438
			c0.226-0.924,0.477-1.759,0.623-2.517c0.141-0.76,0.266-1.421,0.367-1.966c0.203-1.088,0.319-1.711,0.319-1.711
			s-0.14,0.618-0.383,1.698c-0.122,0.54-0.269,1.196-0.438,1.947c-0.173,0.751-0.455,1.575-0.713,2.486
			c-0.135,0.455-0.275,0.928-0.421,1.417c-0.149,0.488-0.35,0.977-0.531,1.49c-0.39,1.012-0.725,2.107-1.227,3.18
			c-0.489,1.077-0.917,2.221-1.504,3.318c-0.561,1.105-1.099,2.244-1.745,3.327c-0.311,0.546-0.621,1.094-0.931,1.64
			c-0.333,0.529-0.666,1.059-0.996,1.582c-0.641,1.059-1.357,2.046-2.025,3.016c-0.68,0.96-1.379,1.861-2.038,2.714
			c-0.684,0.833-1.313,1.635-1.944,2.333c-1.225,1.426-2.329,2.536-3.103,3.303c-0.23,0.221-0.422,0.405-0.592,0.562l-8.893,3.787
			l-2.398-1.018c0.057-0.056,0.106-0.104,0.169-0.167c0.623-0.62,1.491-1.521,2.479-2.647c0.499-0.561,1.024-1.177,1.564-1.844
			c0.556-0.652,1.091-1.383,1.667-2.116c0.554-0.754,1.123-1.534,1.677-2.341c0.531-0.826,1.114-1.635,1.61-2.499
			c0.516-0.852,1.033-1.701,1.48-2.573c0.231-0.432,0.461-0.857,0.688-1.28c0.205-0.435,0.408-0.862,0.607-1.284
			c0.198-0.421,0.393-0.836,0.584-1.241c0.167-0.415,0.33-0.821,0.489-1.218c0.316-0.793,0.629-1.536,0.838-2.25
			c0.229-0.708,0.438-1.356,0.625-1.93c0.143-0.586,0.269-1.099,0.371-1.52c0.206-0.842,0.323-1.322,0.323-1.322
			s-0.14,0.475-0.385,1.305c-0.122,0.415-0.271,0.917-0.44,1.494c-0.212,0.564-0.452,1.197-0.713,1.891
			c-0.241,0.699-0.587,1.424-0.938,2.195c-0.176,0.383-0.356,0.779-0.541,1.183c-0.208,0.394-0.421,0.794-0.637,1.202
			c-0.217,0.406-0.437,0.82-0.66,1.24c-0.244,0.406-0.491,0.818-0.74,1.234c-0.482,0.838-1.033,1.652-1.582,2.468
			c-0.527,0.829-1.142,1.601-1.702,2.386c-0.584,0.77-1.18,1.512-1.758,2.226c-0.602,0.696-1.16,1.388-1.737,2.003
			c-0.56,0.63-1.104,1.21-1.618,1.734c-1.02,1.057-1.909,1.896-2.54,2.469c-0.265,0.24-0.468,0.42-0.631,0.561
			c-1.841-0.832-3.625-1.64-5.326-2.41c7.291-4.666,5.57-14.15,4.865-16.961l7.256-4.189c0.001,0.389-0.003,0.879-0.021,1.448
			c-0.029,0.732-0.071,1.591-0.164,2.506c-0.082,0.917-0.218,1.891-0.392,2.856c-0.171,0.967-0.411,1.92-0.667,2.809
			c-0.15,0.435-0.295,0.855-0.434,1.255c-0.167,0.39-0.327,0.757-0.472,1.097c-0.176,0.325-0.338,0.622-0.481,0.887
			c-0.132,0.273-0.304,0.473-0.423,0.656c-0.25,0.355-0.393,0.56-0.393,0.56s0.162-0.19,0.444-0.522
			c0.136-0.168,0.329-0.356,0.488-0.615c0.169-0.256,0.362-0.543,0.57-0.854c0.182-0.331,0.377-0.688,0.584-1.065
			c0.179-0.395,0.367-0.809,0.562-1.238c0.345-0.877,0.682-1.826,0.95-2.797c0.27-0.971,0.503-1.951,0.675-2.881
			c0.183-0.926,0.309-1.801,0.409-2.551c0.152-1.194,0.214-2.084,0.232-2.396l13.025-7.523l-40.704,20.238
			c0.029-3.061,0.043-6.275,0.04-9.614c0-0.515-0.002-1.036-0.003-1.559c-0.001-0.258-0.001-0.513-0.002-0.772
			c-0.037-9.797-0.244-20.498-0.767-31.1C63.714,271.468,63.636,269.779,63.565,268.159z M75.851,313.021l5.613-3.24
			c0.271,1.217,0.594,3.182,0.481,5.319c-0.234,4.491-2.21,7.624-5.87,9.318c-1.013-0.46-1.988-0.903-2.919-1.327
			C76.641,319.644,76.582,315.465,75.851,313.021z M70.93,322.08c-2.466-1.121-4.518-2.057-6.018-2.741l8.905-5.143
			C74.185,315.93,74.299,319.267,70.93,322.08z M77.886,327.901c-3.29,1.187-8.643,3.427-13.706,6.909
			c0.106-3.632,0.211-8.072,0.288-13.083L77.886,327.901z M79.859,328.81l7.863,3.618c-5.842,0.112-14.59,1.319-23.665,6.312
			c0.022-0.646,0.045-1.328,0.067-2.058C70.109,332.357,76.858,329.812,79.859,328.81z M63.887,343.33
			c0.03-0.752,0.067-1.707,0.109-2.849c11.089-6.37,21.776-6.799,27.092-6.506l9.446,4.347c-1.743-0.072-3.69-0.033-5.756,0.138
			c-1.234,0.099-2.506,0.241-3.791,0.427c-1.289,0.176-2.59,0.403-3.888,0.646c-5.19,0.993-10.276,2.455-14.04,3.693
			c-2.42,0.793-4.3,1.488-5.336,1.886C66.12,344.369,64.812,343.762,63.887,343.33z M69.527,345.945
			c1.017-0.415,2.361-0.943,3.946-1.527c3.681-1.358,8.67-2.986,13.778-4.152c1.278-0.287,2.56-0.559,3.83-0.777
			c1.268-0.23,2.523-0.416,3.743-0.557c2.283-0.273,4.431-0.375,6.309-0.334l9.403,4.327c-7.11,0.589-19.527,2.256-32.417,6.956
			C74.873,348.404,71.953,347.064,69.527,345.945z M80.076,350.77c14.067-4.898,27.329-6.2,33.282-6.547l24.65,11.339
			c-7.514-1.463-16.188-2.688-24.226-2.688c-11.739,0-21.367,0.972-25.71,1.493C85.294,353.127,82.604,351.915,80.076,350.77z
			 M154.973,384.702c-6.191-3.122-18.611-9.277-31.307-14.963c13.318-1.45,27.657,5.806,31.549,7.948
			C155.116,380.579,155.032,382.972,154.973,384.702z M155.321,374.607c-0.007,0.194-0.013,0.378-0.02,0.568
			c-2.188-1.16-5.929-2.986-10.559-4.601c-6.515-2.275-15.982-4.477-24.799-2.484c-2.661-1.166-5.309-2.298-7.888-3.358
			c-1.647-0.68-3.344-1.388-5.07-2.116c10.289-1.054,31.433-1.771,48.491,7.007C155.423,371.372,155.369,373.043,155.321,374.607z
			 M155.556,367.151c-19.986-9.802-44.841-7.398-52.698-6.296c-4.016-1.725-8.114-3.521-12.089-5.287
			c4.965-0.523,13.251-1.197,23.013-1.197c10.353,0,21.807,2.057,30.375,4.02l11.509,5.297
			C155.629,364.866,155.592,366.023,155.556,367.151z M156.17,345.67c-0.065,2.632-0.129,5.264-0.193,7.854
			c-0.051,1.682-0.101,3.333-0.15,4.969l-62.601-26.547l46.955-23.438c6.688-3.066,12.228-5.703,15.149-7.305
			c-0.009,0.893-0.012,1.693-0.008,2.367c0.031,5.559,0.412,14.101,0.781,22.362c0.125,2.783,0.247,5.506,0.353,8.08
			C156.364,337.806,156.268,341.74,156.17,345.67z M140.373,265.89c-0.815-0.39-1.66-0.787-2.538-1.215
			c-2.063-0.989-4.298-2.061-6.664-3.195c-0.85-0.405-1.725-0.811-2.61-1.221c-1.356-0.667-2.731-1.346-4.144-2.044
			c-10.516-5.197-22.433-11.087-32.582-14.705c-0.792-0.282-1.566-0.558-2.331-0.83c-4.677-2.048-9.043-3.96-12.834-5.623
			c-3.689-1.596-6.837-2.959-9.209-3.986c4.693-2.447,10.462-5.292,16.812-8.331c1.097,0.479,2.493,1.081,4.126,1.775
			c2.006,0.865,4.357,1.846,6.884,2.877c2.515,1.059,5.234,2.106,7.939,3.179c2.703,1.079,5.453,2.044,8.004,3.006
			c1.273,0.487,2.539,0.869,3.721,1.281c1.185,0.398,2.306,0.773,3.34,1.122c1.025,0.371,2.007,0.589,2.856,0.845
			c0.853,0.24,1.597,0.449,2.209,0.621c1.224,0.343,1.923,0.54,1.923,0.54s-0.689-0.23-1.896-0.634
			c-0.603-0.2-1.335-0.445-2.174-0.725c-0.834-0.297-1.798-0.558-2.805-0.979c-1.014-0.396-2.113-0.826-3.275-1.279
			c-1.158-0.466-2.396-0.907-3.644-1.454c-2.498-1.083-5.187-2.175-7.829-3.38c-2.644-1.2-5.297-2.372-7.753-3.546
			c-2.467-1.15-4.76-2.239-6.716-3.195c-0.909-0.439-1.734-0.843-2.485-1.21c5.882-2.796,12.182-5.726,18.521-8.637
			c0.364,0.125,0.747,0.257,1.167,0.401c1.194,0.406,2.586,0.883,4.079,1.396c1.499,0.494,3.06,1.098,4.642,1.665
			c6.318,2.306,12.636,4.611,12.636,4.611s-6.109-2.827-12.219-5.653c-1.532-0.698-3.054-1.437-4.503-2.054
			c-1.216-0.533-2.352-1.029-3.372-1.477c9.826-4.497,19.622-8.892,27.981-12.61c1.519,0.598,3.608,1.421,6.098,2.401
			c2.629,1.044,5.697,2.264,8.985,3.57c3.293,1.294,6.781,2.733,10.278,4.153c3.496,1.422,6.992,2.845,10.269,4.179
			c1.643,0.659,3.203,1.356,4.698,1.985c1.491,0.638,2.9,1.239,4.202,1.795c5.207,2.227,8.679,3.71,8.679,3.71
			s-3.414-1.613-8.534-4.029c-1.281-0.604-2.668-1.26-4.135-1.952c-1.471-0.684-3.008-1.441-4.625-2.161
			c-3.227-1.455-6.668-3.008-10.11-4.561c-3.445-1.549-6.88-3.117-10.125-4.533c-3.239-1.429-6.263-2.764-8.855-3.906
			c-1.571-0.688-2.972-1.301-4.178-1.828c9.587-4.255,16.906-7.452,19.546-8.602c5.046,2.285,27.295,12.435,47.305,22.658
			c0.98,0.5,1.974,0.996,2.962,1.493l2.586,12.322l2.511-9.777c14.784,7.271,29.426,13.805,36.442,16.883
			c-1.879,0.675-4.135,1.492-6.686,2.422c-3.434,1.25-7.389,2.715-11.617,4.297c-2.745-0.99-6.561-2.357-7.695-2.712
			c-0.917-0.289-1.851-0.626-2.806-0.947c-0.956-0.328-1.926-0.66-2.897-0.993c-0.971-0.333-1.942-0.666-2.898-0.993
			c-0.956-0.33-1.904-0.637-2.791-1.005c-1.791-0.703-3.463-1.359-4.896-1.921c-2.873-1.127-4.788-1.88-4.788-1.88
			s1.837,0.922,4.594,2.307c1.382,0.693,2.994,1.501,4.722,2.367c0.857,0.451,1.774,0.843,2.699,1.259
			c0.926,0.415,1.866,0.836,2.807,1.257c0.941,0.419,1.883,0.841,2.81,1.257c0.928,0.41,1.834,0.834,2.728,1.207
			c1.789,0.742,3.459,1.437,4.89,2.03c0.04,0.017,0.076,0.033,0.114,0.052c-4.014,1.518-8.196,3.122-12.377,4.761
			c-1.974,0.786-3.946,1.557-5.896,2.34l-26.671-10.144l23.826,10.387c-0.668,0.439-1.641,1.197-2.575,1.951
			c-0.951,0.388-1.891,0.775-2.816,1.167c-4.659-2.069-15.445-6.783-26.193-10.947c-3.56-1.389-7.119-2.781-10.456-4.084
			c-2.623-1.035-6.751-2.658-8.394-3.3l-1.545-4.667l-7.142,5.757l-7.056-3.147c0.055-0.23,0.104-0.466,0.149-0.709
			c0.001-0.005,0.001-0.011,0.003-0.015c0.033-0.184,0.069-0.364,0.095-0.552l0,0c0.507-3.268-0.314-6.087-2.383-7.137
			c-0.557-0.283-1.165-0.417-1.801-0.417c-2.786,0-6.12,2.581-8.159,6.596c-2.503,4.933-2.104,10.166,0.893,11.686
			c0.557,0.283,1.165,0.417,1.8,0.417c1.927,0,4.115-1.234,5.956-3.322l11.416,4.354l4.61-4.169l4.168,6.087l2.976-1.733
			l-3.767-8.38c1.814,0.818,5.439,2.452,7.811,3.523c3.27,1.467,6.758,3.029,10.246,4.593c10.306,4.583,19.791,8.801,24.061,10.7
			c-1.476,0.619-2.915,1.229-4.29,1.838c-2.101,0.91-4.082,1.777-5.891,2.627c-0.784,0.36-1.534,0.703-2.257,1.04
			c-1.515,0.552-2.953,1.084-4.27,1.583l-28.688-12.512l25.417,13.794c-5.96,2.435-19.819,8.626-21.937,9.572
			C156.06,272.313,149.996,270.243,140.373,265.89z M139.938,235.257l6.826,3.043l1.253,0.559l1.069-0.862l4.622-3.725l1.475,4.455
			l-0.204-0.264l-1.482-1.919l-1.799,1.626l-3.591,3.249l-9.49-3.621C139.055,237.124,139.527,236.271,139.938,235.257z
			 M138.612,231.721c-0.048,0.273-0.104,0.549-0.176,0.829l-0.198,0.787c-0.66,2.161-1.76,3.676-2.296,4.322l-0.448,0.509
			c-1.394,1.579-3.031,2.56-4.273,2.56c-0.297,0-0.554-0.056-0.784-0.173c-1.617-0.822-1.921-4.703,0.092-8.669
			c1.77-3.488,4.493-5.367,6.157-5.367c0.297,0,0.554,0.056,0.785,0.174c1.096,0.556,1.544,2.5,1.179,4.816h0
			C138.639,231.583,138.623,231.65,138.612,231.721z M252.335,338.717c-4.363,2.525-19.726,11.154-40.8,20.039
			c-20.76,8.751-44.285,21.926-52.228,26.472c-0.043-2.295-0.113-5.991-0.201-10.59c-0.085-3.949-0.185-8.559-0.292-13.497
			c-0.057-2.469-0.116-5.021-0.175-7.613c-0.074-2.592-0.15-5.225-0.226-7.859c-0.151-5.265-0.303-10.529-0.443-15.467
			c-0.056-2.467-0.167-4.854-0.272-7.116c-0.102-2.262-0.198-4.4-0.288-6.374c-0.356-7.892-0.593-13.151-0.593-13.151
			c-0.038-6.858,0.621-26.461,0.731-29.695c2.67-1.194,17.317-7.732,22.562-9.816c5.251-2.087,13.405-4.932,21.29-7.68
			c7.945-2.77,16.16-5.632,21.466-7.745c2.071-0.826,5.211-2.157,8.715-3.674c4.584-1.447,8.87-2.782,12.563-3.91
			c3.288-1.009,6.101-1.857,8.241-2.497c0.115,9.011,0.157,21.642,0.159,34.963C252.549,301.17,252.377,331.695,252.335,338.717z"/>
		<path fill="#333333" d="M201.134,236.791c0,0-0.849-0.375-2.336-1.031c-1.485-0.662-3.584-1.639-6.095-2.828
			c-1.255-0.595-2.614-1.239-4.037-1.949c-1.425-0.702-2.946-1.412-4.491-2.196c-3.098-1.553-6.402-3.21-9.706-4.869
			c-1.643-0.844-3.273-1.716-4.906-2.512c-1.633-0.8-3.21-1.644-4.753-2.429c-0.768-0.4-1.53-0.78-2.264-1.178
			c-0.743-0.373-1.473-0.735-2.181-1.091c-1.422-0.699-2.757-1.387-3.988-2.026c-0.616-0.318-1.206-0.623-1.767-0.914
			c-0.571-0.269-1.112-0.524-1.619-0.763c-1.017-0.485-1.903-0.908-2.633-1.257c-1.459-0.711-2.291-1.14-2.291-1.14
			s0.891,0.249,2.447,0.721c0.776,0.244,1.72,0.541,2.802,0.88c0.54,0.177,1.115,0.364,1.721,0.562
			c0.59,0.233,1.211,0.478,1.859,0.732c1.296,0.511,2.699,1.067,4.172,1.684c0.738,0.307,1.496,0.621,2.271,0.942
			c0.767,0.334,1.537,0.706,2.328,1.066c1.575,0.739,3.218,1.469,4.859,2.27c1.654,0.778,3.3,1.625,4.958,2.454
			c1.645,0.855,3.29,1.709,4.909,2.551c1.618,0.841,3.173,1.74,4.698,2.572c3.042,1.677,5.842,3.316,8.219,4.761
			c2.389,1.423,4.336,2.687,5.7,3.568c0.685,0.436,1.207,0.806,1.57,1.046C200.942,236.661,201.134,236.791,201.134,236.791z"/>
		<g>
			<g>
				<path fill="#FFFFFF" d="M357.906,253.716c-1.116,0-1.35-0.325-1.35-2.418c0-2.045,0.28-2.278,1.35-2.278h18.463
					c0.326,0.465,0.744,1.953,0.744,2.928c0,2.884-0.977,4.233-13.72,23.859c10.185,0,11.766,0.092,13.533-0.326
					c0.094,0.51,0.326,1.674,0.326,2.836c0,1.442-0.838,2.186-2.837,2.186h-17.301c-0.465-0.65-0.837-1.813-0.837-3.023
					c0-2.278,0.744-3.534,13.905-23.811L357.906,253.716z"/>
			</g>
			<g>
				<path fill="#FFFFFF" d="M372.948,295.377c10.315,0,16.436,3.629,16.436,12.452c0,5.764-4.198,9.534-7.755,10.387
					c3.629,0.642,9.106,3.843,9.106,11.669c0,11.243-8.183,14.303-16.862,14.303c-5.977,0-12.309-0.712-13.661-1.068
					c0,0,0.285-13.234,0.285-25.187c0-5.764-0.215-17.005-0.142-21.773C363.344,295.732,368.679,295.377,372.948,295.377z
					 M384.119,329.885c0-7.399-5.479-8.894-11.384-8.894c-2.42,0-5.765,0.142-5.765,0.142c0,15.867-0.213,17.362-0.213,17.362
					c1.78,0.214,4.057,0.284,6.403,0.284C378.354,338.779,384.119,337.428,384.119,329.885z M373.232,316.297
					c6.617,0,9.677-2.704,9.677-7.756c0-5.906-4.34-7.756-10.814-7.756c-1.566,0-3.7,0.071-4.98,0.213c0,0,0,1.139-0.214,15.156
					C367.114,316.154,370.528,316.297,373.232,316.297z"/>
			</g>
			<g>
				<g>
					<path fill="#FFFFFF" d="M405.935,312.076l-9.351-2.417l0.127-0.635l9.35,2.417L405.935,312.076z M406.76,323.652l-6.932,0.444
						v-0.635l6.932-0.446V323.652z M413.248,332.493l-7.377,6.104l-0.383-0.509l7.378-6.105L413.248,332.493z M410.322,301.455
						l-3.625-4.453l0.51-0.381l3.561,4.515L410.322,301.455z M423.105,341.015l-3.879,4.961l-0.508-0.38l3.879-4.963
						L423.105,341.015z M422.026,297.13l-2.608-7.377l0.635-0.255l2.608,7.377L422.026,297.13z M435.699,299.229v-6.296h0.636v6.296
						H435.699z M448.865,340.633l3.88,4.963l-0.508,0.38l-3.882-4.961L448.865,340.633z M448.802,296.875l2.606-7.377l0.638,0.255
						l-2.608,7.377L448.802,296.875z M458.596,331.983l7.377,6.105l-0.38,0.509l-7.377-6.104L458.596,331.983z M460.695,301.137
						l3.562-4.515l0.511,0.381l-3.626,4.453L460.695,301.137z M464.702,323.016l6.933,0.446v0.635l-6.933-0.444V323.016z
						 M465.401,311.441l9.35-2.417l0.127,0.635l-9.349,2.417L465.401,311.441z"/>
				</g>
			</g>
			<g>
				<g>
					<path fill="#FFFFFF" d="M492.215,247.834l-3.363,8.926l4.844-0.897l-7.94,18.661l-0.538-0.043c0,0,2.961-12.517,3.005-12.517
						l-4.889,0.808l4.755-14.938H492.215z"/>
				</g>
			</g>
			<g>
				<g>
					<path fill="#FFFFFF" d="M507.006,245.067c0,0,2.481,5.052,2.481,7.297c0,1.266-0.968,2.44-2.547,2.454
						c-1.997,0.013-2.923-1.226-2.923-2.454c0-2.376,2.884-7.31,2.884-7.31L507.006,245.067z"/>
				</g>
			</g>
			<g>
				<path fill="#FFFFFF" d="M510.595,296.375c0.618-0.925,1.622-1.209,3.396-0.641c1.854,0.57,2.241,1.067,1.159,2.633
					l-14.209,20.991c12.046,19.991,13.05,21.273,14.904,23.123c-1.312,1.281-2.702,1.777-3.707,1.777
					c-0.849,0-2.008-0.141-2.701-1.35l-11.43-19.853l-12.589,20.351c-0.54,0.852-1.543,1.137-3.319,0.567
					c-1.854-0.567-2.163-1.065-1.158-2.632l14.132-22.199c-12.589-19.281-13.361-20.207-15.213-22.129
					c1.312-1.208,2.702-1.707,3.707-1.707c0.848,0,1.93,0.143,2.7,1.352l11.74,18.927L510.595,296.375z"/>
			</g>
			<g>
				<path fill="#FFFFFF" d="M433.972,337.082c-10.478,0-17.336-5.242-17.336-13.961c0-14.316,8.894-21.618,21.707-21.618
					c10.479,0,17.26,5.315,17.26,14.034C455.603,329.854,446.785,337.082,433.972,337.082z M438.041,310.719
					c-3.994,0-7.764,5.387-7.764,12.474c0,3.188,1.659,4.748,3.995,4.748c3.995,0,7.688-5.386,7.688-12.475
					C441.961,312.277,440.302,310.719,438.041,310.719z"/>
			</g>
			<g>
				<path fill="#FFFFFF" d="M393.362,271.896c-4.789,0-8.371-2.837-8.371-8.556c0-8.975,4.651-14.418,11.395-14.418
					c4.79,0,8.37,2.837,8.37,8.603C404.756,266.456,400.06,271.896,393.362,271.896z M396.199,252.086
					c-4.139,0-7.115,4.789-7.115,11.254c0,3.766,2,5.394,4.464,5.394c4.14,0,7.115-4.79,7.115-11.253
					C400.663,253.667,398.617,252.086,396.199,252.086z"/>
			</g>
			<g>
				<path fill="#FFFFFF" d="M426.314,259.337c0-2.604-0.791-3.302-2.045-3.302c-1.209,0-3.163,1.349-3.953,2.324v14.092l-8.65,0.231
					c0.141-6.278,0.141-10.834,0.141-13.858c0-2.092-0.093-4.93-0.093-6.649c0-1.861,1.72-2.652,6.276-2.652
					c1.58,0,2.14,0.792,2.14,1.581c0,0.791,0,1.303-0.187,2.28l0.14,0.139c1.628-1.905,4.141-4,7.814-4
					c3.161,0,5.532,1.674,6.232,4.604c1.767-2.51,4.277-4.604,7.997-4.604c4.651,0,6.976,2.465,6.976,8.652
					c0,9.486-0.093,11.393,0.232,14.276c-0.696,0.14-3.721,0.231-5.255,0.231c-2.279,0-3.58-1.349-3.58-3.115l0.045-10.184
					c0-2.651-0.789-3.349-2.231-3.349c-1.208,0-2.838,1.349-3.767,2.511v13.905l-8.232,0.231V259.337z"/>
			</g>
			<g>
				<path fill="#FFFFFF" d="M465.536,242.142c6.139,0,10.232,2.14,10.232,8.045c0,3.674-2.652,6.325-5.208,6.835
					c2.556,0.42,6.091,2.466,6.091,7.721c0,7.255-5.208,9.3-10.51,9.3c-3.721,0-7.302-0.464-8.187-0.698
					c0,0,0.187-8.648,0.187-16.462c0-3.768-0.14-11.115-0.092-14.232C460.003,242.375,462.933,242.142,465.536,242.142z
					 M473.536,264.93c0-5.489-4.093-6.559-8.232-6.559c-1.86,0-4.231,0.093-4.231,0.093c0,11.765-0.141,12.79-0.141,12.79
					c1.303,0.14,2.932,0.186,4.652,0.186C469.303,271.44,473.536,270.463,473.536,264.93z M465.676,255.954
					c4.791,0,6.976-1.954,6.976-5.581c0-4.325-3.255-5.627-7.813-5.627c-1.207,0-2.695,0.047-3.627,0.14c0,0,0,0.837-0.139,10.975
					C461.072,255.86,463.676,255.954,465.676,255.954z"/>
			</g>
			<g>
				<path fill="#FFFFFF" d="M513.434,265.316c0,1.085-0.495,1.489-1.644,1.489c-1.921,0-6.323,0-7.937,0
					c-0.123,3.597,1.55,4.651,4.372,4.651c1.922,0,3.658-0.498,4.309-0.714c0.435,1.303,0.372,1.581,0.062,1.922
					c-0.589,0.559-2.294,1.302-5.053,1.302c-4.218,0-7.193-2.202-7.193-7.099c0-5.55,2.945-8.248,7.1-8.248
					C511.17,258.62,513.434,260.449,513.434,265.316z M510.209,264.914c0.125-2.728-1.085-3.875-2.759-3.875
					c-1.983,0-3.41,1.705-3.566,3.936L510.209,264.914z"/>
			</g>
			<g>
				<g>
					<path fill="#FFFFFF" d="M499.02,327.279l-10.94,17.686c-0.259,0.408-0.642,0.852-1.193,1.192c1.4-0.036,2.162-0.765,2.56-1.39
						l10.173-16.446L499.02,327.279z"/>
				</g>
				<g>
					<path fill="#FFFFFF" d="M488.913,296.228l10.206,16.454l0.512-0.784l-9.346-15.071c-0.695-1.088-1.608-1.541-2.373-1.731
						C488.29,295.408,488.627,295.78,488.913,296.228z"/>
				</g>
				<g>
					<path fill="#FFFFFF" d="M519.709,342.459c-1.758-1.757-2.878-3.24-14.366-22.295l13.801-20.388
						c0.528-0.762,1.022-1.668,0.693-2.611c-0.316-0.913-1.234-1.335-2.136-1.633c0.355,0.302,0.665,0.685,0.842,1.19
						c0.439,1.267-0.188,2.42-0.786,3.282l-13.528,19.986c11.184,18.544,12.341,20.078,14.008,21.741l1.342,1.339l-1.357,1.324
						c-0.767,0.748-1.618,1.332-2.49,1.725c1.341-0.153,2.759-0.885,3.97-2.062l0.812-0.796L519.709,342.459z"/>
				</g>
			</g>
			<g>
				<g>
					<g>
						<path fill="#FFFFFF" d="M376.274,283.416l-2.245,2.247h1.28l5.39-5.39c-0.051-0.328-0.102-0.61-0.143-0.826l-0.049-0.265
							l-1.138,1.14C378.951,281.654,377.984,282.838,376.274,283.416z"/>
					</g>
					<g>
						<path fill="#FFFFFF" d="M377.665,285.663c0.279,0,0.532-0.02,0.773-0.045l2.757-2.85c0.001-0.026-0.022-0.858-0.058-1.223
							l-4.021,4.118H377.665z"/>
					</g>
					<g>
						<path fill="#FFFFFF" d="M358.746,285.607l1.816-1.816h-1.028l-1.04,1.041C358.562,284.954,358.746,285.607,358.746,285.607z"
							/>
					</g>
					<g>
						<polygon fill="#FFFFFF" points="361.282,285.663 363.152,283.791 362.181,283.791 360.311,285.663 						"/>
					</g>
					<g>
						<polygon fill="#FFFFFF" points="364.125,285.663 365.994,283.791 365.022,283.791 363.152,285.663 						"/>
					</g>
					<g>
						<polygon fill="#FFFFFF" points="366.966,285.663 368.837,283.791 367.864,283.791 365.994,285.663 						"/>
					</g>
					<g>
						<polygon fill="#FFFFFF" points="369.81,285.663 371.68,283.791 370.708,283.791 368.837,285.663 						"/>
					</g>
					<g>
						<polygon fill="#FFFFFF" points="372.365,285.663 374.235,283.791 373.264,283.791 371.394,285.663 						"/>
					</g>
				</g>
				<g>
					<g>
						<path fill="#FFFFFF" d="M368.285,273.117h0.867l6.86-6.861c0.831-1.313,1.517-2.417,2.082-3.361l-9.046,9.045
							C368.8,272.325,368.547,272.712,368.285,273.117z"/>
					</g>
					<g>
						<path fill="#FFFFFF" d="M371.483,268.005l8.482-8.482c0.485-0.928,0.301-0.71,0.485-1.323l-7.138,7.138
							C372.621,266.42,372.339,266.684,371.483,268.005z"/>
					</g>
					<g>
						<path fill="#FFFFFF" d="M371.491,273.114l0.312-0.311c0.858-1.326,1.522-2.16,2.226-3.252l-3.074,3.567
							C371.427,273.117,371.106,273.117,371.491,273.114z"/>
					</g>
					<g>
						<path fill="#FFFFFF" d="M375.159,262.004l5.561-5.562c0.026-0.292,0.017-0.141,0.017-0.459c0-0.122-0.007-0.255-0.018-0.39
							l-3.604,3.604C376.583,260.114,375.952,260.736,375.159,262.004z"/>
					</g>
					<g>
						<path fill="#FFFFFF" d="M379.489,251.497c0,0.436-0.011,0.834-0.048,1.231l0.6-0.6c-0.082-0.18-0.165-0.343-0.252-0.464
							l-0.232-0.333l-0.071,0.073C379.485,251.435,379.489,251.467,379.489,251.497z"/>
					</g>
					<g>
						<path fill="#FFFFFF" d="M378.652,256.274l1.869-1.958c-0.069-0.35-0.088-0.347-0.189-0.674l-1.132,1.132
							C379.033,255.382,379.059,255.438,378.652,256.274z"/>
					</g>
				</g>
				<g>
					<g>
						<path fill="#FFFFFF" d="M363.344,258.867l1.312-1.312c0.124-0.192,0.246-0.379,0.373-0.576l-1.082,0.004l-1.889,1.889
							L363.344,258.867z"/>
					</g>
					<g>
						<path fill="#FFFFFF" d="M358.475,258.077l1.082-1.083L358.272,257l-0.188,0.188
							C358.163,257.515,358.284,257.82,358.475,258.077z"/>
					</g>
					<g>
						<path fill="#FFFFFF" d="M360.559,258.849l1.863-1.861l-1.285,0.004l-1.58,1.579
							C359.819,258.718,360.153,258.812,360.559,258.849z"/>
					</g>
				</g>
			</g>
			<g>
				<circle fill="#FFFFFF" cx="491.258" cy="242.242" r="2.743"/>
			</g>
		</g>
	</g>
	<g>
		<path fill="#333333" d="M129.265,235.998c0,0,0.661-4.836,3.778-6.021c3.117-1.184,3.242,1.808,3.242,1.808
			s3.196-5.47-0.187-5.361c-3.383,0.112-5.361,2.745-5.361,2.745S128.541,235.284,129.265,235.998z"/>
		<path fill="#333333" d="M136.658,238.02c0,0-0.687,0.809-3.274,1.122c-2.586,0.312-2.586-0.312-2.586-0.312
			s8.484-3.174,7.733-10.314c-0.751-7.142,1.369,0.588,1.369,0.588S137.837,239.649,136.658,238.02z"/>
		<path fill="#333333" d="M142.456,235.434c0,0,0.114,3.104-1.018,3.796c-1.132,0.692-3.786,0-3.786,0l1.718-4.513L142.456,235.434z
			"/>
	</g>
</g>
</svg>
